<?xml version="1.0" encoding="UTF-8"?>
<svg id="Layer_1" xmlns="http://www.w3.org/2000/svg" version="1.1" viewBox="0 0 447.5 56.4">
  <!-- Generator: Adobe Illustrator 30.5.1, SVG Export Plug-In . SVG Version: 2.1.4 Build 3)  -->
  <defs>
    <style>
      .st0 {
        stroke-width: .5px;
      }

      .st0, .st1, .st2, .st3 {
        fill: #5b5b5b;
      }

      .st0, .st2 {
        stroke: #5b5b5b;
        stroke-miterlimit: 10;
      }

      .st2 {
        stroke-width: .2px;
      }

      .st4, .st3 {
        isolation: isolate;
      }

      .st3 {
        font-family: Akkurat, Akkurat;
        font-size: 9.9px;
      }
    </style>
  </defs>
  <g>
    <path class="st1" d="M52.8,44.9V10.5h6.9v34.4h-6.9Z"/>
    <path class="st1" d="M112.3,10.5l-15.1,25.1c-4.6,7.6-7.6,9.3-19.2,9.3h-13.3V10.5h6.9v30.2c10.3,0,13.6.4,20.4-10.3l11.8-19.9h8.5Z"/>
    <path class="st1" d="M157.1,27.7c0,9.7-3.7,17.5-23.2,17.5h-1c-19.5,0-23.2-7.8-23.2-17.5s3.7-17.5,23.2-17.5h1c19.5,0,23.2,7.8,23.2,17.5ZM149.2,27.7c0-12.5-6.9-13.3-13.9-13.3h-3.5c-7,0-13.9.8-13.9,13.3s7,13.6,13.9,13.6h3.5c7.1,0,13.9-1.1,13.9-13.6Z"/>
    <path class="st1" d="M203.6,44.9c-3,0-2.3,0-4.3,0-3.4,0-6.9-2-11.2-6.8l-2.3-2.6h-18.7v9.3h-7.2V10.5h27.7c11.1,0,13.7,4.3,13.5,12.6-.1,4.4-1.2,9.9-8.1,11.8l10.6,10ZM194.7,23.3c0-5.3-1-8.4-7.5-8.4h-20.1v15.7h20.1c3.6,0,7.5-1.1,7.5-7.2Z"/>
    <path class="st1" d="M241.5,10.5l-17.6,22.1v12.3h-6.8v-12.1l-18-22.3h7.8l13.7,17.2,13.1-17.2h7.8Z"/>
    <g>
      <path class="st1" d="M0,45l15.3-25.3c4.6-7.6,7.6-9.4,19.4-9.4h13.5v34.7h-7v-28.7c-12.9,0-15.4-1.5-21.6,8.6l-11.9,20.1H0Z"/>
      <path class="st1" d="M32.5,37.8v7.2h-12.6l1.2-2.4c.9-1.6,1.7-3.1,3-3.8,0,0,1.5-1.1,4.2-1.1h4.2Z"/>
    </g>
  </g>
  <g>
    <g>
      <path class="st1" d="M359.8,39.2l7.4-12.3c2.2-3.7,3.7-4.6,9.4-4.6h6.6v16.9h-3.4v-14c-6.3,0-7.5-.7-10.5,4.2l-5.8,9.8s-3.7,0-3.7,0Z"/>
      <path class="st1" d="M375.5,35.7v3.5h-6.1l.6-1.1c.4-.8.8-1.5,1.5-1.8,0,0,.8-.5,2-.5h2.1Z"/>
    </g>
    <g class="st4">
      <text class="st3" transform="translate(418.2 35.9)"><tspan x="0" y="0">©</tspan></text>
    </g>
    <g>
      <path class="st1" d="M389.5,18.2v11h-1.6v-11h-15.9v-1.2h21.2v1.2h-3.8,0Z"/>
      <path class="st1" d="M395.3,27.5v-10.5h8.4v1.2h-6.9v3.2h6v1.2h-6v3.6h6.9v1.2h-8.4Z"/>
      <path class="st1" d="M415.1,24.1c0,.5-.2.9-.4,1.4s-.5.8-.9,1.1-.9.6-1.5.8c-.6.2-1.2.3-1.9.3s-1.3,0-1.9-.3c-.6-.2-1.1-.5-1.6-.9-.3-.3-.6-.6-.8-.9-.2-.3-.4-.7-.5-1-.1-.4-.2-.8-.2-1.1,0-.4,0-.8,0-1.2s0-.8,0-1.2c0-.4,0-.8.2-1.1.1-.4.3-.7.5-1,.2-.3.5-.6.8-.9.4-.4,1-.7,1.6-.9s1.2-.3,1.9-.3,1.3,0,1.9.3c.6.2,1.1.5,1.5.8.4.3.7.7.9,1.1s.3.9.4,1.3h-1.6c0-.3,0-.6-.2-.8s-.3-.5-.5-.7c-.3-.2-.6-.4-.9-.6s-.8-.2-1.3-.2-.9,0-1.2.2-.8.3-1.1.6c-.3.2-.5.5-.6.8s-.3.6-.3.9c0,.3-.1.6-.1.9v1.8c0,.3,0,.6.1.9s.2.6.3.9.3.5.6.8c.3.3.7.4,1.1.6s.8.2,1.2.2.9,0,1.3-.2.7-.3,1-.6c.2-.2.4-.4.5-.7.1-.3.2-.5.2-.8h1.6,0Z"/>
      <path class="st1" d="M425.2,27.5v-4.8h-6.1v4.8h-1.6v-10.5h1.6v4.4h6.1v-4.4h1.6v10.5h-1.6Z"/>
      <path class="st1" d="M387.9,39.2v-10.5h1.6v9.3h6.1v1.2h-7.6Z"/>
      <path class="st1" d="M405.1,39.2l-1-2.5h-5.5l-1,2.5h-1.6l4.5-10.5h1.9l4.5,10.5h-1.6,0ZM401.3,30l-2.2,5.5h4.5l-2.2-5.5Z"/>
      <path class="st1" d="M417.9,36.3c0,.4,0,.8-.3,1.1-.2.3-.4.6-.7.9-.3.3-.8.6-1.4.7-.6.2-1.2.3-1.8.3h-5.1v-10.5h5.1c.6,0,1.2,0,1.7.3s1,.4,1.4.7c.3.2.4.5.6.8s.2.6.2,1-.2,1-.5,1.4-.8.7-1.4.9c.3,0,.6.2.9.4.3.2.5.4.7.6.2.2.3.5.4.7s.2.5.2.8h0ZM416,31.5c0-.3,0-.5-.2-.7-.1-.2-.3-.4-.5-.5-.2-.1-.4-.3-.7-.3-.3,0-.6,0-.9,0h-3.5v3.3h3.5c.7,0,1.2-.1,1.6-.4.4-.3.6-.7.6-1.3h0ZM416.2,36.2c0-.3,0-.6-.2-.8-.1-.2-.3-.4-.5-.6s-.5-.3-.8-.3c-.3,0-.6-.1-.9-.1h-3.6v3.7h3.5c.3,0,.7,0,1,0,.3,0,.6-.2.8-.3s.4-.3.5-.6c.1-.2.2-.5.2-.8h0Z"/>
    </g>
    <path class="st1" d="M353.8,39.2s10.4-16.2,11.3-17.6,2.2-3.4,6.9-3.4v-1.2s-4.2-.3-6.7,2.5c-2.4,2.8-13,19.6-13,19.6h1.5Z"/>
  </g>
  <path class="st1" d="M262.6,0c.5,18.2.5,38.2,0,56.4-.5-18.2-.5-38.2,0-56.4h0Z"/>
  <path class="st0" d="M307.9,6.5v-.2c-12.1,0-21.9,9.8-21.9,21.9h.4c0-11.9,9.6-21.5,21.5-21.5v-.2ZM425.3,6.5v.2c11.9,0,21.5,9.6,21.5,21.5h.4c0-12.1-9.8-21.9-21.9-21.9v.2ZM447,28.2h-.2c0,11.9-9.6,21.5-21.5,21.5v.4c12.1,0,21.9-9.8,21.9-21.9h-.2ZM307.9,49.9v-.2c-11.9,0-21.5-9.6-21.5-21.5h-.4c0,12.1,9.8,21.9,21.9,21.9v-.2ZM425.3,49.9v-.2h-117.4v.4h117.4v-.2ZM307.9,6.5v.2h117.4v-.4h-117.4v.2Z"/>
  <path class="st2" d="M313.9,19.8h23.5c.1,0,.2,0,.2.2s-.1.2-.2.2h-23.5c-1.2,0-2.3,1-2.3,2.2v1.2c0,.1-.1.2-.2.2s-.2,0-.2-.2v-1.2c0-1.2-1-2.2-2.3-2.2h-2.1c-.1,0-.2,0-.2-.2s.1-.2.2-.2h2.1c1.2,0,2.3-1,2.3-2.2v-1.2c0-.1.1-.2.2-.2s.2,0,.2.2v1.2c0,1.2,1,2.2,2.3,2.2Z"/>
  <path class="st2" d="M313.9,35.2h23.5c.1,0,.2,0,.2.2s-.1.2-.2.2h-23.5c-1.2,0-2.3,1-2.3,2.2v1.2c0,.1-.1.2-.2.2s-.2,0-.2-.2v-1.2c0-1.2-1-2.2-2.3-2.2h-2.1c-.1,0-.2,0-.2-.2s.1-.2.2-.2h2.1c1.2,0,2.3-1,2.3-2.2v-1.2c0-.1.1-.2.2-.2s.2,0,.2.2v1.2c0,1.2,1,2.2,2.3,2.2Z"/>
  <path class="st2" d="M304.9,27.2h23.5c.1,0,.2,0,.2.2s-.1.2-.2.2h-23.5c-1.2,0-2.3,1-2.3,2.2v1.2c0,.1-.1.2-.2.2s-.2,0-.2-.2v-1.2c0-1.2-1-2.2-2.3-2.2h-2.1c-.1,0-.2,0-.2-.2s.1-.2.2-.2h2.1c1.2,0,2.3-1,2.3-2.2v-1.2c0-.1.1-.2.2-.2s.2,0,.2.2v1.2c0,1.2,1,2.2,2.3,2.2Z"/>
</svg>