<?xml version="1.0" encoding="UTF-8"?>
<svg id="Layer_1" xmlns="http://www.w3.org/2000/svg" version="1.1" viewBox="0 0 382.6 79.4">
  <!-- Generator: Adobe Illustrator 30.4.0, SVG Export Plug-In . SVG Version: 2.1.4 Build 226)  -->
  <defs>
    <style>
      .st0 {
        fill: #9cb77e;
      }

      .st1 {
        fill: #fff;
      }
    </style>
  </defs>
  <path class="st1" d="M100.9,62.3V17.1h9v45.2h-9Z"/>
  <path class="st1" d="M179,17l-19.8,32.9c-6,9.9-9.9,12.2-25.2,12.2h-17.5V17h9v39.6c13.4,0,17.9.6,26.8-13.6l15.4-26.1s11.2,0,11.2,0Z"/>
  <path class="st1" d="M237.9,39.7c0,12.8-4.8,23-30.5,23h-1.3c-25.5,0-30.5-10.2-30.5-23s4.8-23,30.5-23h1.3c25.5,0,30.5,10.2,30.5,23ZM227.4,39.7c0-16.5-9-17.3-18.2-17.3h-4.7c-9.2,0-18.2,1-18.2,17.3s9.2,17.9,18.2,17.9h4.7c9.3,0,18.2-1.5,18.2-17.9Z"/>
  <path class="st1" d="M298.8,62.3h-5.7c-4.5,0-9-2.6-14.7-8.9l-3.1-3.4h-24.5v12.2h-9.5V17.1h36.4c14.6,0,18.1,5.7,17.8,16.6-.1,5.7-1.6,13-10.6,15.4l13.8,13.1h0ZM287.1,33.9c0-7-1.3-11.1-9.8-11.1h-26.4v20.5h26.4c4.7,0,9.8-1.5,9.8-9.5Z"/>
  <path class="st1" d="M348.6,17l-23.2,29v16.2h-8.9v-15.9l-23.6-29.3h10.2l18.1,22.6,17.2-22.6h10.2Z"/>
  <g>
    <path class="st1" d="M31.5,62.4l20-33.2c6-10.1,10.1-12.4,25.4-12.4h17.6v45.6h-9.2V24.8c-16.9,0-20.3-1.9-28.4,11.2l-15.6,26.4h-9.9.1Z"/>
    <path class="st0" d="M74.2,53v9.5h-16.5l1.6-3.1c1.2-2,2.2-4.1,3.9-5,0,0,2-1.3,5.5-1.3h5.5-.1Z"/>
  </g>
</svg>