<?xml version="1.0" encoding="UTF-8"?>
<svg id="Layer_1" xmlns="http://www.w3.org/2000/svg" version="1.1" viewBox="0 0 382.6 79.4">
  <!-- Generator: Adobe Illustrator 30.4.0, SVG Export Plug-In . SVG Version: 2.1.4 Build 226)  -->
  <defs>
    <style>
      .st0 {
        fill: #5b5b5b;
      }

      .st1 {
        fill: #9cb77e;
      }
    </style>
  </defs>
  <path class="st0" d="M104.8,65.4V20.7h8.9v44.7h-8.9Z"/>
  <path class="st0" d="M182.2,20.5l-19.6,32.6c-5.9,9.8-9.8,12.1-25,12.1h-17.3V20.5h8.9v39.2c13.3,0,17.7.6,26.5-13.4l15.3-25.8s11.1,0,11.1,0Z"/>
  <path class="st0" d="M240.4,43c0,12.7-4.8,22.8-30.2,22.8h-1.3c-25.2,0-30.2-10.1-30.2-22.8s4.8-22.8,30.2-22.8h1.3c25.2,0,30.2,10.1,30.2,22.8ZM230.1,43c0-16.3-8.9-17.2-18-17.2h-4.6c-9.1,0-18,1-18,17.2s9.1,17.7,18,17.7h4.6c9.2,0,18-1.4,18-17.7Z"/>
  <path class="st0" d="M300.8,65.4h-5.6c-4.5,0-8.9-2.6-14.6-8.8l-3-3.3h-24.2v12.1h-9.4V20.7h36.1c14.4,0,17.9,5.6,17.6,16.4-.1,5.6-1.6,12.8-10.5,15.3l13.7,13h0ZM289.2,37.3c0-6.9-1.3-11-9.7-11h-26.1v20.3h26.1c4.6,0,9.7-1.4,9.7-9.4Z"/>
  <path class="st0" d="M350.1,20.5l-22.9,28.7v16h-8.8v-15.7l-23.4-29h10.1l17.9,22.4,17-22.4h10.1Z"/>
  <path class="st0" d="M36.1,65.5l19.8-32.9c5.9-10,10-12.3,25.1-12.3h17.5v45.2h-9.1V28.3c-16.7,0-20.1-1.9-28.1,11.1l-15.4,26.1h-9.8.1Z"/>
  <path class="st1" d="M77.4,56.2v9.4h-16.3l1.6-3c1.2-2,2.2-4,3.9-4.9,0,0,2-1.3,5.5-1.3h5.5-.1Z"/>
</svg>