<?xml version="1.0" encoding="UTF-8"?>
<svg id="Layer_1" xmlns="http://www.w3.org/2000/svg" version="1.1" viewBox="0 0 382.6 79.4">
  <!-- Generator: Adobe Illustrator 30.4.0, SVG Export Plug-In . SVG Version: 2.1.4 Build 226)  -->
  <defs>
    <style>
      .st0 {
        fill: #fff;
      }
    </style>
  </defs>
  <path class="st0" d="M125.4,62.9V18.4h8.9v44.5h-8.9Z"/>
  <g>
    <path class="st0" d="M57.1,63l19.7-32.7c6-9.9,9.9-12.2,25-12.2h17.4v44.9h-9V25.9c-16.7,0-20-1.9-28,11.1l-15.4,26h-9.8Z"/>
    <path class="st0" d="M99.1,53.7v9.3h-16.3l1.6-3c1.2-2,2.2-4,3.9-4.9,0,0,2-1.4,5.4-1.4h5.5Z"/>
  </g>
  <path class="st0" d="M202.5,18.3l-19.7,32.5c-6,9.9-9.9,12.2-25,12.2h-17.4V18.3h9v37.9c16.7,0,20.9.9,28-9.9l15.4-28h9.8Z"/>
  <g>
    <path class="st0" d="M211.5,40.6l.4-20.6h-11.7v-1.7h26v1.7h-11.7l-.4,20.6h-2.6Z"/>
    <path class="st0" d="M235.8,41.1c-2.3,0-4.3-.4-6-1.1-1.7-.7-3-1.7-3.9-3.1s-1.3-2.9-1.3-4.7c0-1.8.5-3.4,1.5-4.7,1-1.3,2.3-2.4,4-3.1,1.7-.7,3.7-1.1,6.1-1.1s4.4.4,6,1.1c1.7.7,2.9,1.8,3.8,3.2.9,1.4,1.2,3.1,1.2,5h-2.7v-.6c0-2.3-.7-4-2.1-5.2-1.4-1.2-3.4-1.8-6.1-1.8s-4.9.6-6.4,1.9c-1.5,1.2-2.3,3-2.4,5.3,0,2.3.7,4,2.1,5.2,1.5,1.2,3.6,1.9,6.3,1.9s3.5-.3,5-.9c1.4-.6,2.6-1.5,3.4-2.6l2.3.7c-1,1.4-2.4,2.6-4.3,3.4-1.9.8-4,1.2-6.4,1.2ZM226.3,32.8v-1.6h19.3v1.6h-19.3Z"/>
    <path class="st0" d="M261.9,41.1c-2.4,0-4.5-.4-6.1-1.1-1.7-.8-2.9-1.8-3.7-3.1-.8-1.3-1.3-2.9-1.3-4.6,0-1.8.6-3.3,1.5-4.7.9-1.3,2.2-2.4,3.9-3.1,1.7-.7,3.7-1.1,6.2-1.1s4.4.4,6.2,1.2,3,1.9,3.7,3.2l-2.5.6c-.6-1-1.6-1.9-2.9-2.4-1.3-.6-2.8-.9-4.5-.9s-3.5.3-4.8.9c-1.3.6-2.2,1.4-2.9,2.5-.6,1.1-1,2.3-1,3.7,0,2.1.7,3.9,2.1,5.2,1.4,1.3,3.5,1.9,6.3,1.9s3.2-.3,4.5-.8c1.3-.5,2.3-1.3,3-2.4l2.6.6c-1,1.4-2.3,2.5-4,3.2-1.7.7-3.7,1.1-6.1,1.1Z"/>
    <path class="st0" d="M276.6,40.6l.4-22.4h2.4l-.3,12.9h.2l-.2,9.4h-2.6ZM294.5,40.6l.2-8.7c0-1.1-.1-2-.4-2.8-.3-.8-.7-1.5-1.4-2.1s-1.4-1-2.3-1.3c-.9-.3-2-.5-3.3-.5s-2.5.2-3.5.5c-1,.3-1.8.8-2.4,1.3-.6.6-1.1,1.2-1.4,2-.3.8-.5,1.6-.5,2.6l-2.1-.2c0-1.8.5-3.3,1.4-4.5.9-1.2,2.1-2,3.7-2.6,1.5-.6,3.2-.8,5.1-.8s2.5.1,3.6.4c1.1.3,2,.6,2.7,1.1.8.5,1.4,1.1,1.9,1.7.5.7.9,1.4,1.1,2.2.2.8.3,1.6.3,2.5l-.2,9.2h-2.6Z"/>
    <path class="st0" d="M211,63l.4-22.4h2.6l-.4,20.6h15.8v1.7h-18.5Z"/>
    <path class="st0" d="M240.2,63.4c-1.9,0-3.4-.2-4.7-.7-1.2-.5-2.2-1.1-2.8-1.8-.6-.8-.9-1.6-.9-2.4,0-1,.3-1.7.9-2.4.6-.6,1.4-1.2,2.4-1.6,1-.4,2.1-.7,3.2-.9,1.3-.2,2.8-.4,4.3-.5,1.6-.1,3-.3,4.4-.4,1.4-.1,2.6-.2,3.5-.3l-1,.4c0-1.8-.4-3.2-1.4-4-1-.9-2.9-1.3-5.5-1.3s-3.4.3-4.6.9c-1.2.6-2.1,1.5-2.6,2.7l-2.7-.5c.6-1.5,1.7-2.7,3.4-3.5,1.7-.8,3.9-1.2,6.5-1.2s4.1.3,5.6.9c1.5.6,2.6,1.4,3.1,2.5.2.4.4,1,.5,1.6,0,.6.1,1.2.1,1.8l-.2,10.4h-2.4v-4.4c0,0,1,.2,1,.2-.8,1.5-2.1,2.7-3.9,3.5-1.9.8-4,1.2-6.6,1.2ZM240.4,61.8c1.7,0,3.1-.2,4.4-.6,1.3-.4,2.3-1,3.1-1.7.8-.7,1.3-1.6,1.5-2.6.2-.6.3-1.2.3-1.8,0-.7,0-1.1,0-1.4l1.1.5c-1,0-2.2.2-3.5.3-1.4,0-2.8.2-4.2.3-1.4.1-2.7.3-3.9.5-.7.1-1.4.3-2.1.6-.7.3-1.3.6-1.8,1-.5.4-.7,1-.7,1.7,0,.5.2,1,.5,1.5.4.5,1,.9,1.8,1.3.9.3,2,.5,3.5.5Z"/>
    <path class="st0" d="M258,63l.4-22.4h2.6l-.2,9.4h-.2l-.3,12.9h-2.4ZM268.7,63.4c-2.2,0-4.1-.4-5.6-1.2-1.5-.8-2.6-1.8-3.4-3.2-.8-1.3-1.1-2.8-1.1-4.5,0-1.7.5-3.2,1.3-4.5.8-1.3,2-2.4,3.6-3.1s3.5-1.1,5.8-1.1,4.1.4,5.7,1.2c1.6.8,2.7,1.8,3.5,3.2.8,1.3,1.2,2.8,1.1,4.5,0,1.7-.5,3.2-1.3,4.5-.9,1.3-2.1,2.4-3.7,3.2-1.6.8-3.6,1.2-5.9,1.2ZM268.6,61.7c1.8,0,3.3-.3,4.5-.9,1.2-.6,2.1-1.5,2.8-2.6.6-1.1,1-2.3,1-3.7,0-1.3-.2-2.6-.8-3.6-.6-1.1-1.5-1.9-2.6-2.5-1.2-.6-2.7-.9-4.6-.9s-3.3.3-4.5.9c-1.2.6-2.1,1.4-2.8,2.5-.6,1.1-1,2.3-1,3.7,0,1.4.2,2.6.8,3.7.6,1.1,1.5,1.9,2.7,2.6,1.2.6,2.7.9,4.5.9Z"/>
    <path class="st0" d="M293.3,63.4c-2.8,0-5.1-.4-6.9-1.2-1.8-.8-2.9-2-3.3-3.4l2.7-.3c.4,1,1.2,1.8,2.6,2.4,1.4.6,3.1.9,5.1.9s3.6-.3,4.8-.9c1.2-.6,1.8-1.4,1.8-2.4,0-.6-.2-1-.5-1.4-.4-.4-1.1-.7-2.2-1-1.1-.3-2.7-.7-4.8-1.1-2.3-.4-4-.8-5.3-1.2-1.3-.4-2.2-.9-2.7-1.4-.5-.5-.8-1.2-.7-1.9,0-.9.4-1.7,1.2-2.4.8-.7,1.9-1.2,3.3-1.6,1.4-.4,3-.6,4.8-.6s3.4.2,4.9.6c1.4.4,2.6,1,3.5,1.7.9.7,1.4,1.6,1.5,2.5l-2.7.3c-.2-1.1-1-1.9-2.3-2.6s-3-.9-5-1c-1.9,0-3.4.2-4.6.8-1.2.5-1.8,1.2-1.8,2.1,0,.5.2.9.6,1.3.4.3,1.1.7,2.2,1,1,.3,2.5.6,4.5.9,2.3.4,4.2.8,5.5,1.3,1.3.4,2.2.9,2.8,1.5.5.6.8,1.3.8,2.2,0,1.6-.9,2.8-2.6,3.7-1.7.9-4,1.3-7,1.3Z"/>
  </g>
</svg>