<?xml version="1.0" encoding="UTF-8"?>
<svg id="Layer_1" xmlns="http://www.w3.org/2000/svg" xmlns:xlink="http://www.w3.org/1999/xlink" version="1.1" viewBox="0 0 1715.8 363.3">
  <!-- Generator: Adobe Illustrator 30.6.0, SVG Export Plug-In . SVG Version: 2.1.4 Build 109)  -->
  <defs>
    <style>
      .st0 {
        fill: none;
        stroke: #fff;
        stroke-miterlimit: 10;
      }

      .st1 {
        font-family: Sk-Modernist-Regular, Sk-Modernist;
        font-size: 367.4px;
      }

      .st1, .st2 {
        fill: #fff;
      }

      .st3 {
        isolation: isolate;
      }

      .st4 {
        clip-path: url(#clippath);
      }
    </style>
    <clipPath id="clippath">
      <path class="st2" d="M1607.5,326.6h-58.8c-6.1,0-11.1-5-11.1-11.1s5-11.1,11.1-11.1h58.8c6.1,0,11.1,5,11.1,11.1s-5,11.1-11.1,11.1ZM1548.7,304.8c-5.9,0-10.6,4.8-10.6,10.6s4.8,10.6,10.6,10.6h58.8c5.9,0,10.6-4.8,10.6-10.6s-4.8-10.6-10.6-10.6h-58.8Z"/>
    </clipPath>
  </defs>
  <text class="st1" transform="translate(188.8 326.7)"><tspan x="0" y="0">Bastion</tspan></text>
  <g>
    <path class="st2" d="M1541.1,89.3v-4.3l-3.4-5.9h.9l2.9,5,2.9-5h.9l-3.4,5.9v4.3h-.8Z"/>
    <path class="st2" d="M1548.9,89.5c-.8,0-1.4-.2-1.9-.5-.5-.3-.9-.8-1.2-1.4-.3-.6-.4-1.3-.4-2.1s.1-1.5.4-2.1c.3-.6.7-1.1,1.2-1.4s1.2-.5,1.9-.5,1.4.2,2,.5c.5.3.9.8,1.2,1.4s.4,1.3.4,2.1-.1,1.5-.4,2.1c-.3.6-.7,1.1-1.2,1.4-.5.3-1.2.5-1.9.5ZM1548.9,88.7c.9,0,1.6-.3,2-.9.5-.6.7-1.4.7-2.4s-.2-1.8-.7-2.4c-.5-.6-1.1-.9-2-.9s-1.1.1-1.5.4-.7.7-.9,1.1c-.2.5-.3,1.1-.3,1.7,0,1,.2,1.8.7,2.4s1.1.9,2,.9Z"/>
    <path class="st2" d="M1557.6,89.5c-.4,0-.8,0-1.1-.2-.3-.1-.6-.3-.9-.5-.2-.2-.5-.5-.6-.8-.2-.3-.3-.6-.4-1,0-.4-.1-.8-.1-1.1v-4.2h.8v4c0,.5,0,.9.1,1.3,0,.4.2.7.4,1,.2.3.4.5.7.6.3.1.6.2,1.1.2s.8,0,1.1-.2c.3-.1.6-.3.8-.6s.3-.6.4-.9.1-.8.1-1.2h.6c0,.9-.1,1.6-.4,2.1s-.7.9-1.1,1.2c-.5.3-1,.4-1.6.4ZM1560.2,89.3v-1.7h0v-6h.8v7.7h-.8Z"/>
    <path class="st2" d="M1569.2,89.5c-.6,0-1.1-.1-1.5-.3-.4-.2-.7-.5-.9-.8-.2-.3-.3-.7-.3-1.1s0-.8.3-1.1.4-.5.7-.7.6-.3,1-.4c.4,0,.9-.2,1.4-.2.5,0,1-.1,1.4-.2.4,0,.8,0,1.1-.1l-.3.2c0-.8-.1-1.5-.5-1.9-.3-.4-.9-.6-1.7-.6s-1.1.1-1.4.4c-.4.3-.6.7-.8,1.2l-.8-.2c.2-.7.5-1.2,1.1-1.6.5-.4,1.2-.6,2-.6s1.3.1,1.8.4c.5.3.8.7,1,1.2,0,.2.1.4.2.7,0,.3,0,.5,0,.8v4.8h-.8v-2h.3c-.2.8-.6,1.3-1.2,1.7-.6.4-1.3.6-2.1.6ZM1569.2,88.8c.5,0,1,0,1.4-.3.4-.2.7-.5,1-.8.2-.3.4-.7.5-1.2,0-.3,0-.5,0-.8s0-.5,0-.7l.4.2c-.3,0-.7,0-1.1.1-.4,0-.9,0-1.3.2-.4,0-.9.1-1.2.2-.2,0-.4.2-.7.3-.2.1-.4.3-.6.5-.1.2-.2.5-.2.8s0,.5.2.7c.1.2.3.4.6.6.3.2.6.2,1.1.2Z"/>
    <path class="st2" d="M1575.3,89.3v-7.7h.8v1.8l-.2-.2c0-.2.2-.4.3-.6.1-.2.3-.3.4-.5.2-.2.4-.3.7-.4.3,0,.6-.2.8-.2.3,0,.5,0,.8,0v.8c-.3,0-.6,0-1,0s-.7.2-1,.4c-.3.2-.5.5-.6.8-.1.3-.2.6-.2.9,0,.3,0,.7,0,1v3.8h-.8Z"/>
    <path class="st2" d="M1583.7,89.5c-.7,0-1.4-.2-1.9-.5-.5-.3-1-.8-1.2-1.4-.3-.6-.4-1.3-.4-2.2s.1-1.6.4-2.2.7-1.1,1.2-1.4,1.2-.5,1.9-.5,1.4.2,1.9.5c.5.3.9.8,1.2,1.5.3.6.4,1.4.4,2.3h-.9v-.3c0-1.1-.3-1.9-.7-2.4s-1.1-.8-1.9-.8-1.5.3-2,.9-.7,1.4-.7,2.4.2,1.8.7,2.4c.5.6,1.1.9,2,.9s1.1-.1,1.6-.4c.4-.3.8-.7,1.1-1.2l.7.3c-.3.7-.8,1.2-1.3,1.5s-1.3.5-2,.5ZM1580.6,85.7v-.7h6.1v.7h-6.1Z"/>
    <path class="st2" d="M1538.6,104.7v-7.7h.8v1.7h0v6h-.8ZM1544.3,104.7v-4c0-.5,0-.9-.1-1.3,0-.4-.2-.7-.4-1-.2-.3-.4-.5-.7-.6-.3-.1-.6-.2-1.1-.2s-.8,0-1.1.2c-.3.1-.6.3-.8.6s-.3.6-.4.9-.1.8-.1,1.2h-.6c0-.9.1-1.6.4-2.1s.7-.9,1.1-1.2c.5-.3,1-.4,1.6-.4s.8,0,1.1.2c.3.1.6.3.9.5.2.2.5.5.6.8.2.3.3.6.4,1,0,.4.1.7.1,1.1v4.2h-.8Z"/>
    <path class="st2" d="M1550.7,104.9c-.8,0-1.4-.2-1.9-.5-.5-.3-.9-.8-1.2-1.4-.3-.6-.4-1.3-.4-2.1s.1-1.5.4-2.1c.3-.6.7-1.1,1.2-1.4s1.2-.5,1.9-.5,1.4.2,2,.5c.5.3.9.8,1.2,1.4s.4,1.3.4,2.1-.1,1.5-.4,2.1c-.3.6-.7,1.1-1.2,1.4-.5.3-1.2.5-1.9.5ZM1550.7,104.1c.9,0,1.6-.3,2-.9.5-.6.7-1.4.7-2.4s-.2-1.8-.7-2.4c-.5-.6-1.1-.9-2-.9s-1.1.1-1.5.4-.7.7-.9,1.1c-.2.5-.3,1.1-.3,1.7,0,1,.2,1.8.7,2.4s1.1.9,2,.9Z"/>
    <path class="st2" d="M1557.8,104.7l-2.4-7.7h.8l1.9,6.3,1.9-6.3h.8l1.9,6.3,1.9-6.3h.8l-2.4,7.7h-.8l-2-6.4-2,6.4h-.8Z"/>
    <path class="st2" d="M1541.8,120.3c-.7,0-1.4-.2-1.9-.5-.5-.3-1-.8-1.2-1.4-.3-.6-.4-1.3-.4-2.2s.1-1.6.4-2.2.7-1.1,1.2-1.4,1.2-.5,1.9-.5,1.4.2,1.9.5c.5.3.9.8,1.2,1.5.3.6.4,1.4.4,2.3h-.9v-.3c0-1.1-.3-1.9-.7-2.4s-1.1-.8-1.9-.8-1.5.3-2,.9-.7,1.4-.7,2.4.2,1.8.7,2.4c.5.6,1.1.9,2,.9s1.1-.1,1.6-.4c.4-.3.8-.7,1.1-1.2l.7.3c-.3.7-.8,1.2-1.3,1.5s-1.3.5-2,.5ZM1538.8,116.5v-.7h6.1v.7h-6.1Z"/>
    <path class="st2" d="M1547.4,120.1v-7.7h.8v1.7h0v6h-.8ZM1553,120.1v-4c0-.5,0-.9-.1-1.3,0-.4-.2-.7-.4-1-.2-.3-.4-.5-.7-.6-.3-.1-.6-.2-1.1-.2s-.8,0-1.1.2c-.3.1-.6.3-.8.6s-.3.6-.4.9-.1.8-.1,1.2h-.6c0-.9.1-1.6.4-2.1s.7-.9,1.1-1.2c.5-.3,1-.4,1.6-.4s.8,0,1.1.2c.3.1.6.3.9.5.2.2.5.5.6.8.2.3.3.6.4,1,0,.4.1.7.1,1.1v4.2h-.8Z"/>
    <path class="st2" d="M1555.2,113.1v-.7h4.9v.7h-4.9ZM1560.1,120.1c-.4,0-.8.1-1.2.1-.4,0-.8-.1-1.1-.3-.3-.2-.5-.4-.7-.7-.1-.3-.2-.5-.2-.8,0-.3,0-.6,0-.9v-7.2h.8v7.2c0,.3,0,.6,0,.8,0,.2,0,.4.1.6.2.3.4.5.8.6.4,0,.8,0,1.4,0v.7Z"/>
    <path class="st2" d="M1564.9,120.3c-.7,0-1.4-.2-1.9-.5-.5-.3-1-.8-1.2-1.4-.3-.6-.4-1.3-.4-2.2s.1-1.6.4-2.2.7-1.1,1.2-1.4,1.2-.5,1.9-.5,1.4.2,1.9.5c.5.3.9.8,1.2,1.5.3.6.4,1.4.4,2.3h-.9v-.3c0-1.1-.3-1.9-.7-2.4s-1.1-.8-1.9-.8-1.5.3-2,.9-.7,1.4-.7,2.4.2,1.8.7,2.4c.5.6,1.1.9,2,.9s1.1-.1,1.6-.4c.4-.3.8-.7,1.1-1.2l.7.3c-.3.7-.8,1.2-1.3,1.5s-1.3.5-2,.5ZM1561.9,116.5v-.7h6.1v.7h-6.1Z"/>
    <path class="st2" d="M1570.5,120.1v-7.7h.8v1.8l-.2-.2c0-.2.2-.4.3-.6.1-.2.3-.3.4-.5.2-.2.4-.3.7-.4.3,0,.6-.2.8-.2.3,0,.5,0,.8,0v.8c-.3,0-.6,0-1,0s-.7.2-1,.4c-.3.2-.5.5-.6.8-.1.3-.2.6-.2.9,0,.3,0,.7,0,1v3.8h-.8Z"/>
    <path class="st2" d="M1576,110.8v-1h.8v1h-.8ZM1576,120.1v-7.7h.8v7.7h-.8Z"/>
    <path class="st2" d="M1579.3,120.1v-7.7h.8v1.7h0v6h-.8ZM1585,120.1v-4c0-.5,0-.9-.1-1.3,0-.4-.2-.7-.4-1-.2-.3-.4-.5-.7-.6-.3-.1-.6-.2-1.1-.2s-.8,0-1.1.2c-.3.1-.6.3-.8.6s-.3.6-.4.9-.1.8-.1,1.2h-.6c0-.9.1-1.6.4-2.1s.7-.9,1.1-1.2c.5-.3,1-.4,1.6-.4s.8,0,1.1.2c.3.1.6.3.9.5.2.2.5.5.6.8.2.3.3.6.4,1,0,.4.1.7.1,1.1v4.2h-.8Z"/>
    <path class="st2" d="M1591.2,120.3c-.7,0-1.3-.2-1.8-.5-.5-.4-.9-.8-1.1-1.5-.3-.6-.4-1.3-.4-2.1s.1-1.4.4-2.1c.3-.6.6-1.1,1.1-1.5.5-.4,1.1-.5,1.8-.5s1.3.2,1.8.5c.5.4.9.8,1.1,1.4.3.6.4,1.3.4,2.1s-.1,1.5-.4,2.1c-.3.6-.6,1.1-1.1,1.5s-1.1.5-1.8.5ZM1591.2,123.7c-.4,0-.8,0-1.1-.2-.4-.1-.7-.3-1.1-.5s-.6-.6-.8-1l.7-.4c.2.5.6.8,1,1,.4.2.9.3,1.3.3s1.1-.1,1.5-.3c.4-.2.6-.6.8-1,.2-.5.2-1,.2-1.7v-2h0v-5.4h.7v7.4c0,.2,0,.4,0,.7,0,.2,0,.4,0,.6,0,.6-.3,1.1-.5,1.5s-.6.7-1.1.9c-.5.2-1,.3-1.7.3ZM1591.2,119.5c.6,0,1.1-.1,1.4-.4s.7-.7.9-1.2c.2-.5.3-1.1.3-1.7s0-1.2-.3-1.7-.5-.9-.9-1.2-.9-.4-1.4-.4-1.1.1-1.4.4-.7.7-.8,1.2c-.2.5-.3,1-.3,1.7s0,1.2.3,1.7c.2.5.5.9.9,1.2.4.3.8.4,1.4.4Z"/>
  </g>
  <g>
    <path class="st2" d="M1540.7,158.4v-9.5h-3.7v-.8h8.2v.8h-3.7v9.5h-.8Z"/>
    <path class="st2" d="M1546.9,149.2v-1h.8v1h-.8ZM1546.9,158.4v-7.7h.8v7.7h-.8Z"/>
    <path class="st2" d="M1550.3,158.4v-7.7h.8v1.7h0v6h-.8ZM1554.9,158.4v-5.1c0-.6-.2-1.1-.5-1.5-.3-.4-.8-.6-1.4-.6s-1,.2-1.4.6c-.4.4-.5.9-.5,1.6l-.6-.3c0-.5.1-.9.3-1.3s.5-.7.9-.9c.4-.2.9-.3,1.4-.3s.9,0,1.3.3c.4.2.7.5.9.9.2.4.3.9.3,1.5v5.3h-.8ZM1559.5,158.4v-5.2c0-.6-.2-1.1-.5-1.5s-.8-.5-1.3-.5-.6,0-.9.2c-.3.1-.5.4-.7.7-.2.3-.3.7-.3,1.3h-.6c0-.7,0-1.1.3-1.6.2-.4.5-.7.9-1s.9-.3,1.4-.3c.8,0,1.4.2,1.8.7.5.5.7,1.1.7,1.9v5.3h-.8Z"/>
    <path class="st2" d="M1565.9,158.7c-.7,0-1.4-.2-1.9-.5-.5-.3-1-.8-1.2-1.4-.3-.6-.4-1.3-.4-2.2s.1-1.6.4-2.2.7-1.1,1.2-1.4,1.2-.5,1.9-.5,1.4.2,1.9.5c.5.3.9.8,1.2,1.5.3.6.4,1.4.4,2.3h-.9v-.3c0-1.1-.3-1.9-.7-2.4s-1.1-.8-1.9-.8-1.5.3-2,.9-.7,1.4-.7,2.4.2,1.8.7,2.4c.5.6,1.1.9,2,.9s1.1-.1,1.6-.4c.4-.3.8-.7,1.1-1.2l.7.3c-.3.7-.8,1.2-1.3,1.5s-1.3.5-2,.5ZM1562.9,154.8v-.7h6.1v.7h-6.1Z"/>
    <path class="st2" d="M1571.6,153v-1h1v1h-1ZM1571.6,157.2v-1h1v1h-1Z"/>
    <path class="st2" d="M1581.8,158.6c-.5,0-1,0-1.4-.3s-.8-.4-1.1-.7-.5-.7-.7-1.2l.8-.2c.2.5.5,1,.9,1.2.4.3.9.4,1.4.4.5,0,.9-.1,1.3-.3s.6-.5.8-.9.3-.8.3-1.3c0-.8-.2-1.4-.6-1.8-.4-.5-1-.7-1.7-.7s-.4,0-.6,0-.4.1-.6.2l-.4-.7,4.2-3.9.2.4h-5.3v-.8h5.8v.8l-3.7,3.6v-.4c.7-.1,1.4,0,2,.2s1,.6,1.4,1.1c.3.5.5,1.2.5,1.9s-.1,1.2-.4,1.7c-.3.5-.7.9-1.1,1.2-.5.3-1,.4-1.7.4Z"/>
    <path class="st2" d="M1590.8,158.4v-7.7h.8v1.7h0v6h-.8ZM1595.4,158.4v-5.1c0-.6-.2-1.1-.5-1.5-.3-.4-.8-.6-1.4-.6s-1,.2-1.4.6c-.4.4-.5.9-.5,1.6l-.6-.3c0-.5.1-.9.3-1.3s.5-.7.9-.9c.4-.2.9-.3,1.4-.3s.9,0,1.3.3c.4.2.7.5.9.9.2.4.3.9.3,1.5v5.3h-.8ZM1600,158.4v-5.2c0-.6-.2-1.1-.5-1.5s-.8-.5-1.3-.5-.6,0-.9.2c-.3.1-.5.4-.7.7-.2.3-.3.7-.3,1.3h-.6c0-.7,0-1.1.3-1.6.2-.4.5-.7.9-1s.9-.3,1.4-.3c.8,0,1.4.2,1.8.7.5.5.7,1.1.7,1.9v5.3h-.8Z"/>
    <path class="st2" d="M1603.2,158.4v-7.7h.8v1.7h0v6h-.8ZM1608.9,158.4v-4c0-.5,0-.9-.1-1.3,0-.4-.2-.7-.4-1-.2-.3-.4-.5-.7-.6-.3-.1-.6-.2-1.1-.2s-.8,0-1.1.2c-.3.1-.6.3-.8.6s-.3.6-.4.9-.1.8-.1,1.2h-.6c0-.9.1-1.6.4-2.1s.7-.9,1.1-1.2c.5-.3,1-.4,1.6-.4s.8,0,1.1.2c.3.1.6.3.9.5.2.2.5.5.6.8.2.3.3.6.4,1,0,.4.1.7.1,1.1v4.2h-.8Z"/>
    <path class="st2" d="M1614.8,158.6c-.9,0-1.6-.2-2.2-.6s-.9-.9-1.1-1.6h.8c.1.3.4.7.8.9.4.3,1,.4,1.6.4s1.1-.1,1.5-.4c.4-.3.6-.6.6-1.1s0-.5-.2-.6c-.1-.2-.3-.3-.7-.5-.3-.1-.9-.3-1.5-.5-.7-.2-1.3-.4-1.7-.6-.4-.2-.7-.4-.8-.6-.2-.2-.2-.5-.2-.9s.1-.8.4-1.1c.2-.3.6-.6,1-.8.4-.2.9-.3,1.5-.3s1.1,0,1.5.3c.5.2.8.5,1.1.8.3.3.4.7.5,1.2l-.8.2c0-.5-.3-.9-.8-1.2-.4-.3-.9-.4-1.6-.4-.6,0-1.1.1-1.5.4-.4.2-.6.6-.6,1s0,.4.2.6.4.3.7.4c.3.1.8.3,1.4.4.7.2,1.3.4,1.7.6.4.2.7.4.9.7s.3.6.3,1c0,.7-.3,1.3-.8,1.7-.5.4-1.3.6-2.2.6Z"/>
    <path class="st2" d="M1540.7,174c-.9,0-1.6-.2-2.2-.6s-.9-.9-1.1-1.6h.8c.1.3.4.7.8.9.4.3,1,.4,1.6.4s1.1-.1,1.5-.4c.4-.3.6-.6.6-1.1s0-.5-.2-.6c-.1-.2-.3-.3-.7-.5-.3-.1-.9-.3-1.5-.5-.7-.2-1.3-.4-1.7-.6-.4-.2-.7-.4-.8-.6-.2-.2-.2-.5-.2-.9s.1-.8.4-1.1c.2-.3.6-.6,1-.8.4-.2.9-.3,1.5-.3s1.1,0,1.5.3c.5.2.8.5,1.1.8.3.3.4.7.5,1.2l-.8.2c0-.5-.3-.9-.8-1.2-.4-.3-.9-.4-1.6-.4-.6,0-1.1.1-1.5.4-.4.2-.6.6-.6,1s0,.4.2.6.4.3.7.4c.3.1.8.3,1.4.4.7.2,1.3.4,1.7.6.4.2.7.4.9.7s.3.6.3,1c0,.7-.3,1.3-.8,1.7-.5.4-1.3.6-2.2.6Z"/>
    <path class="st2" d="M1548.9,174c-.8,0-1.4-.2-1.9-.5-.5-.3-.9-.8-1.2-1.4-.3-.6-.4-1.3-.4-2.1,0-.8.2-1.5.4-2.1s.7-1.1,1.2-1.4c.5-.3,1.2-.5,1.9-.5s1.4.2,2,.5c.6.4,1,.9,1.2,1.5l-.8.3c-.2-.5-.5-.9-.9-1.1-.4-.3-.9-.4-1.4-.4s-1.1.1-1.5.4-.7.7-.9,1.2-.3,1.1-.3,1.7c0,1,.2,1.8.7,2.4.5.6,1.1.9,2,.9s1-.1,1.4-.4c.4-.3.7-.6.9-1.1l.8.3c-.3.7-.7,1.1-1.3,1.5-.5.3-1.2.5-1.9.5Z"/>
    <path class="st2" d="M1554,173.8v-7.7h.8v1.8l-.2-.2c0-.2.2-.4.3-.6.1-.2.3-.3.4-.5.2-.2.4-.3.7-.4.3,0,.6-.2.8-.2.3,0,.5,0,.8,0v.8c-.3,0-.6,0-1,0s-.7.2-1,.4c-.3.2-.5.5-.6.8-.1.3-.2.6-.2.9,0,.3,0,.7,0,1v3.8h-.8Z"/>
    <path class="st2" d="M1562.4,174c-.8,0-1.4-.2-1.9-.5-.5-.3-.9-.8-1.2-1.4-.3-.6-.4-1.3-.4-2.1s.1-1.5.4-2.1c.3-.6.7-1.1,1.2-1.4s1.2-.5,1.9-.5,1.4.2,2,.5c.5.3.9.8,1.2,1.4s.4,1.3.4,2.1-.1,1.5-.4,2.1c-.3.6-.7,1.1-1.2,1.4-.5.3-1.2.5-1.9.5ZM1562.4,173.2c.9,0,1.6-.3,2-.9.5-.6.7-1.4.7-2.4s-.2-1.8-.7-2.4c-.5-.6-1.1-.9-2-.9s-1.1.1-1.5.4-.7.7-.9,1.1c-.2.5-.3,1.1-.3,1.7,0,1,.2,1.8.7,2.4s1.1.9,2,.9Z"/>
    <path class="st2" d="M1568.1,173.8v-10.5h.8v10.5h-.8Z"/>
    <path class="st2" d="M1571.6,173.8v-10.5h.8v10.5h-.8Z"/>
    <path class="st2" d="M1537,182.3v-.7h4.9v.7h-4.9ZM1542,189.2c-.4,0-.8.1-1.2.1-.4,0-.8-.1-1.1-.3-.3-.2-.5-.4-.7-.7-.1-.3-.2-.5-.2-.8,0-.3,0-.6,0-.9v-7.2h.8v7.2c0,.3,0,.6,0,.8,0,.2,0,.4.1.6.2.3.4.5.8.6.4,0,.8,0,1.4,0v.7Z"/>
    <path class="st2" d="M1546.8,189.4c-.8,0-1.4-.2-1.9-.5-.5-.3-.9-.8-1.2-1.4-.3-.6-.4-1.3-.4-2.1s.1-1.5.4-2.1c.3-.6.7-1.1,1.2-1.4s1.2-.5,1.9-.5,1.4.2,2,.5c.5.3.9.8,1.2,1.4s.4,1.3.4,2.1-.1,1.5-.4,2.1c-.3.6-.7,1.1-1.2,1.4-.5.3-1.2.5-1.9.5ZM1546.8,188.6c.9,0,1.6-.3,2-.9.5-.6.7-1.4.7-2.4s-.2-1.8-.7-2.4c-.5-.6-1.1-.9-2-.9s-1.1.1-1.5.4-.7.7-.9,1.1c-.2.5-.3,1.1-.3,1.7,0,1,.2,1.8.7,2.4s1.1.9,2,.9Z"/>
    <path class="st2" d="M1559.1,189.4c-.7,0-1.4-.2-1.9-.5-.5-.3-1-.8-1.2-1.4-.3-.6-.4-1.3-.4-2.2s.1-1.6.4-2.2.7-1.1,1.2-1.4,1.2-.5,1.9-.5,1.4.2,1.9.5c.5.3.9.8,1.2,1.5.3.6.4,1.4.4,2.3h-.9v-.3c0-1.1-.3-1.9-.7-2.4s-1.1-.8-1.9-.8-1.5.3-2,.9-.7,1.4-.7,2.4.2,1.8.7,2.4c.5.6,1.1.9,2,.9s1.1-.1,1.6-.4c.4-.3.8-.7,1.1-1.2l.7.3c-.3.7-.8,1.2-1.3,1.5s-1.3.5-2,.5ZM1556.1,185.6v-.7h6.1v.7h-6.1Z"/>
    <path class="st2" d="M1563.5,189.2l3.1-3.9-3-3.8h1l2.5,3.2,2.5-3.2h1l-3,3.8,3.1,3.9h-1l-2.5-3.3-2.5,3.3h-1Z"/>
    <path class="st2" d="M1572.3,192.6v-11.1h.8v5.9h0v5.2h-.8ZM1575.7,189.4c-.7,0-1.3-.2-1.8-.5s-.8-.8-1.1-1.5c-.3-.6-.4-1.3-.4-2.1s.1-1.5.4-2.1c.3-.6.6-1.1,1.1-1.4.5-.4,1.1-.5,1.8-.5s1.3.2,1.8.5c.5.4.9.8,1.1,1.5.3.6.4,1.3.4,2.1s-.1,1.5-.4,2.1-.6,1.1-1.1,1.5c-.5.4-1.1.5-1.8.5ZM1575.6,188.6c.6,0,1-.1,1.4-.4.4-.3.7-.7.9-1.2.2-.5.3-1.1.3-1.7s0-1.2-.3-1.7c-.2-.5-.5-.9-.8-1.2-.4-.3-.9-.4-1.4-.4s-1,.1-1.4.4-.7.7-.9,1.2-.3,1.1-.3,1.7,0,1.2.3,1.7c.2.5.5.9.9,1.2s.9.4,1.4.4Z"/>
    <path class="st2" d="M1581.3,189.2v-10.5h.8v10.5h-.8Z"/>
    <path class="st2" d="M1587.9,189.4c-.8,0-1.4-.2-1.9-.5-.5-.3-.9-.8-1.2-1.4-.3-.6-.4-1.3-.4-2.1s.1-1.5.4-2.1c.3-.6.7-1.1,1.2-1.4s1.2-.5,1.9-.5,1.4.2,2,.5c.5.3.9.8,1.2,1.4s.4,1.3.4,2.1-.1,1.5-.4,2.1c-.3.6-.7,1.1-1.2,1.4-.5.3-1.2.5-1.9.5ZM1587.9,188.6c.9,0,1.6-.3,2-.9.5-.6.7-1.4.7-2.4s-.2-1.8-.7-2.4c-.5-.6-1.1-.9-2-.9s-1.1.1-1.5.4-.7.7-.9,1.1c-.2.5-.3,1.1-.3,1.7,0,1,.2,1.8.7,2.4s1.1.9,2,.9Z"/>
    <path class="st2" d="M1593.5,189.2v-7.7h.8v1.8l-.2-.2c0-.2.2-.4.3-.6.1-.2.3-.3.4-.5.2-.2.4-.3.7-.4.3,0,.6-.2.8-.2.3,0,.5,0,.8,0v.8c-.3,0-.6,0-1,0s-.7.2-1,.4c-.3.2-.5.5-.6.8-.1.3-.2.6-.2.9,0,.3,0,.7,0,1v3.8h-.8Z"/>
    <path class="st2" d="M1601.9,189.4c-.7,0-1.4-.2-1.9-.5-.5-.3-1-.8-1.2-1.4-.3-.6-.4-1.3-.4-2.2s.1-1.6.4-2.2.7-1.1,1.2-1.4,1.2-.5,1.9-.5,1.4.2,1.9.5c.5.3.9.8,1.2,1.5.3.6.4,1.4.4,2.3h-.9v-.3c0-1.1-.3-1.9-.7-2.4s-1.1-.8-1.9-.8-1.5.3-2,.9-.7,1.4-.7,2.4.2,1.8.7,2.4c.5.6,1.1.9,2,.9s1.1-.1,1.6-.4c.4-.3.8-.7,1.1-1.2l.7.3c-.3.7-.8,1.2-1.3,1.5s-1.3.5-2,.5ZM1598.9,185.6v-.7h6.1v.7h-6.1Z"/>
  </g>
  <g>
    <path class="st2" d="M1537.8,227.6v-10.3h.8v10.3h-.8Z"/>
    <path class="st2" d="M1541.1,227.6v-7.7h.8v1.7h0v6h-.8ZM1546.8,227.6v-4c0-.5,0-.9-.1-1.3,0-.4-.2-.7-.4-1-.2-.3-.4-.5-.7-.6-.3-.1-.6-.2-1.1-.2s-.8,0-1.1.2c-.3.1-.6.3-.8.6s-.3.6-.4.9-.1.8-.1,1.2h-.6c0-.9.1-1.6.4-2.1s.7-.9,1.1-1.2c.5-.3,1-.4,1.6-.4s.8,0,1.1.2c.3.1.6.3.9.5.2.2.5.5.6.8.2.3.3.6.4,1,0,.4.1.7.1,1.1v4.2h-.8Z"/>
    <path class="st2" d="M1548.9,220.6v-.7h4.9v.7h-4.9ZM1553.8,227.6c-.4,0-.8.1-1.2.1-.4,0-.8-.1-1.1-.3-.3-.2-.5-.4-.7-.7-.1-.3-.2-.5-.2-.8,0-.3,0-.6,0-.9v-7.2h.8v7.2c0,.3,0,.6,0,.8,0,.2,0,.4.1.6.2.3.4.5.8.6.4,0,.8,0,1.4,0v.7Z"/>
    <path class="st2" d="M1558.6,227.8c-.7,0-1.4-.2-1.9-.5-.5-.3-1-.8-1.2-1.4-.3-.6-.4-1.3-.4-2.2s.1-1.6.4-2.2.7-1.1,1.2-1.4,1.2-.5,1.9-.5,1.4.2,1.9.5c.5.3.9.8,1.2,1.5.3.6.4,1.4.4,2.3h-.9v-.3c0-1.1-.3-1.9-.7-2.4s-1.1-.8-1.9-.8-1.5.3-2,.9-.7,1.4-.7,2.4.2,1.8.7,2.4c.5.6,1.1.9,2,.9s1.1-.1,1.6-.4c.4-.3.8-.7,1.1-1.2l.7.3c-.3.7-.8,1.2-1.3,1.5s-1.3.5-2,.5ZM1555.6,224v-.7h6.1v.7h-6.1Z"/>
    <path class="st2" d="M1564.3,227.6v-10.5h.8v10.5h-.8Z"/>
    <path class="st2" d="M1567.7,227.6v-10.5h.8v10.5h-.8Z"/>
    <path class="st2" d="M1571.1,218.3v-1h.8v1h-.8ZM1571.1,227.6v-7.7h.8v7.7h-.8Z"/>
    <path class="st2" d="M1577.5,227.8c-.7,0-1.3-.2-1.8-.5-.5-.4-.9-.8-1.1-1.5-.3-.6-.4-1.3-.4-2.1s.1-1.4.4-2.1c.3-.6.6-1.1,1.1-1.5.5-.4,1.1-.5,1.8-.5s1.3.2,1.8.5c.5.4.9.8,1.1,1.4.3.6.4,1.3.4,2.1s-.1,1.5-.4,2.1c-.3.6-.6,1.1-1.1,1.5s-1.1.5-1.8.5ZM1577.6,231.2c-.4,0-.8,0-1.1-.2-.4-.1-.7-.3-1.1-.5s-.6-.6-.8-1l.7-.4c.2.5.6.8,1,1,.4.2.9.3,1.3.3s1.1-.1,1.5-.3c.4-.2.6-.6.8-1,.2-.5.2-1,.2-1.7v-2h0v-5.4h.7v7.4c0,.2,0,.4,0,.7,0,.2,0,.4,0,.6,0,.6-.3,1.1-.5,1.5s-.6.7-1.1.9c-.5.2-1,.3-1.7.3ZM1577.6,227c.6,0,1.1-.1,1.4-.4s.7-.7.9-1.2c.2-.5.3-1.1.3-1.7s0-1.2-.3-1.7-.5-.9-.9-1.2-.9-.4-1.4-.4-1.1.1-1.4.4-.7.7-.8,1.2c-.2.5-.3,1-.3,1.7s0,1.2.3,1.7c.2.5.5.9.9,1.2.4.3.8.4,1.4.4Z"/>
    <path class="st2" d="M1586.6,227.8c-.7,0-1.4-.2-1.9-.5-.5-.3-1-.8-1.2-1.4-.3-.6-.4-1.3-.4-2.2s.1-1.6.4-2.2.7-1.1,1.2-1.4,1.2-.5,1.9-.5,1.4.2,1.9.5c.5.3.9.8,1.2,1.5.3.6.4,1.4.4,2.3h-.9v-.3c0-1.1-.3-1.9-.7-2.4s-1.1-.8-1.9-.8-1.5.3-2,.9-.7,1.4-.7,2.4.2,1.8.7,2.4c.5.6,1.1.9,2,.9s1.1-.1,1.6-.4c.4-.3.8-.7,1.1-1.2l.7.3c-.3.7-.8,1.2-1.3,1.5s-1.3.5-2,.5ZM1583.6,224v-.7h6.1v.7h-6.1Z"/>
    <path class="st2" d="M1592.2,227.6v-7.7h.8v1.7h0v6h-.8ZM1597.8,227.6v-4c0-.5,0-.9-.1-1.3,0-.4-.2-.7-.4-1-.2-.3-.4-.5-.7-.6-.3-.1-.6-.2-1.1-.2s-.8,0-1.1.2c-.3.1-.6.3-.8.6s-.3.6-.4.9-.1.8-.1,1.2h-.6c0-.9.1-1.6.4-2.1s.7-.9,1.1-1.2c.5-.3,1-.4,1.6-.4s.8,0,1.1.2c.3.1.6.3.9.5.2.2.5.5.6.8.2.3.3.6.4,1,0,.4.1.7.1,1.1v4.2h-.8Z"/>
    <path class="st2" d="M1604.2,227.8c-.8,0-1.4-.2-1.9-.5-.5-.3-.9-.8-1.2-1.4-.3-.6-.4-1.3-.4-2.1,0-.8.2-1.5.4-2.1s.7-1.1,1.2-1.4c.5-.3,1.2-.5,1.9-.5s1.4.2,2,.5c.6.4,1,.9,1.2,1.5l-.8.3c-.2-.5-.5-.9-.9-1.1-.4-.3-.9-.4-1.4-.4s-1.1.1-1.5.4-.7.7-.9,1.2-.3,1.1-.3,1.7c0,1,.2,1.8.7,2.4.5.6,1.1.9,2,.9s1-.1,1.4-.4c.4-.3.7-.6.9-1.1l.8.3c-.3.7-.7,1.1-1.3,1.5-.5.3-1.2.5-1.9.5Z"/>
    <path class="st2" d="M1612.5,227.8c-.7,0-1.4-.2-1.9-.5-.5-.3-1-.8-1.2-1.4-.3-.6-.4-1.3-.4-2.2s.1-1.6.4-2.2.7-1.1,1.2-1.4,1.2-.5,1.9-.5,1.4.2,1.9.5c.5.3.9.8,1.2,1.5.3.6.4,1.4.4,2.3h-.9v-.3c0-1.1-.3-1.9-.7-2.4s-1.1-.8-1.9-.8-1.5.3-2,.9-.7,1.4-.7,2.4.2,1.8.7,2.4c.5.6,1.1.9,2,.9s1.1-.1,1.6-.4c.4-.3.8-.7,1.1-1.2l.7.3c-.3.7-.8,1.2-1.3,1.5s-1.3.5-2,.5ZM1609.4,224v-.7h6.1v.7h-6.1Z"/>
    <path class="st2" d="M1537.8,243v-10.3h.8v10.3h-.8Z"/>
    <path class="st2" d="M1541.1,243v-7.7h.8v1.7h0v6h-.8ZM1546.8,243v-4c0-.5,0-.9-.1-1.3,0-.4-.2-.7-.4-1-.2-.3-.4-.5-.7-.6-.3-.1-.6-.2-1.1-.2s-.8,0-1.1.2c-.3.1-.6.3-.8.6s-.3.6-.4.9-.1.8-.1,1.2h-.6c0-.9.1-1.6.4-2.1s.7-.9,1.1-1.2c.5-.3,1-.4,1.6-.4s.8,0,1.1.2c.3.1.6.3.9.5.2.2.5.5.6.8.2.3.3.6.4,1,0,.4.1.7.1,1.1v4.2h-.8Z"/>
    <path class="st2" d="M1549,236v-.7h4.4v.7h-4.4ZM1550.4,243v-8.4c0-.2,0-.4,0-.6s0-.4.1-.5c0-.2.2-.3.3-.5.1-.1.3-.3.4-.3.2,0,.3-.1.5-.2s.4,0,.6,0h1v.7h-.9c-.4,0-.7.1-1,.3-.2.2-.3.5-.3,1v8.5h-.8Z"/>
    <path class="st2" d="M1555.1,243v-7.7h.8v1.8l-.2-.2c0-.2.2-.4.3-.6.1-.2.3-.3.4-.5.2-.2.4-.3.7-.4.3,0,.6-.2.8-.2.3,0,.5,0,.8,0v.8c-.3,0-.6,0-1,0s-.7.2-1,.4c-.3.2-.5.5-.6.8-.1.3-.2.6-.2.9,0,.3,0,.7,0,1v3.8h-.8Z"/>
    <path class="st2" d="M1562.6,243.2c-.6,0-1.1-.1-1.5-.3-.4-.2-.7-.5-.9-.8-.2-.3-.3-.7-.3-1.1s0-.8.3-1.1.4-.5.7-.7.6-.3,1-.4c.4,0,.9-.2,1.4-.2.5,0,1-.1,1.4-.2.4,0,.8,0,1.1-.1l-.3.2c0-.8-.1-1.5-.5-1.9-.3-.4-.9-.6-1.7-.6s-1.1.1-1.4.4c-.4.3-.6.7-.8,1.2l-.8-.2c.2-.7.5-1.2,1.1-1.6.5-.4,1.2-.6,2-.6s1.3.1,1.8.4c.5.3.8.7,1,1.2,0,.2.1.4.2.7,0,.3,0,.5,0,.8v4.8h-.8v-2h.3c-.2.8-.6,1.3-1.2,1.7-.6.4-1.3.6-2.1.6ZM1562.6,242.4c.5,0,1,0,1.4-.3.4-.2.7-.5,1-.8.2-.3.4-.7.5-1.2,0-.3,0-.5,0-.8s0-.5,0-.7l.4.2c-.3,0-.7,0-1.1.1-.4,0-.9,0-1.3.2-.4,0-.9.1-1.2.2-.2,0-.4.2-.7.3-.2.1-.4.3-.6.5-.1.2-.2.5-.2.8s0,.5.2.7c.1.2.3.4.6.6.3.2.6.2,1.1.2Z"/>
    <path class="st2" d="M1571.5,243.2c-.9,0-1.6-.2-2.2-.6s-.9-.9-1.1-1.6h.8c.1.3.4.7.8.9.4.3,1,.4,1.6.4s1.1-.1,1.5-.4c.4-.3.6-.6.6-1.1s0-.5-.2-.6c-.1-.2-.3-.3-.7-.5-.3-.1-.9-.3-1.5-.5-.7-.2-1.3-.4-1.7-.6-.4-.2-.7-.4-.8-.6-.2-.2-.2-.5-.2-.9s.1-.8.4-1.1c.2-.3.6-.6,1-.8.4-.2.9-.3,1.5-.3s1.1,0,1.5.3c.5.2.8.5,1.1.8.3.3.4.7.5,1.2l-.8.2c0-.5-.3-.9-.8-1.2-.4-.3-.9-.4-1.6-.4-.6,0-1.1.1-1.5.4-.4.2-.6.6-.6,1s0,.4.2.6.4.3.7.4c.3.1.8.3,1.4.4.7.2,1.3.4,1.7.6.4.2.7.4.9.7s.3.6.3,1c0,.7-.3,1.3-.8,1.7-.5.4-1.3.6-2.2.6Z"/>
    <path class="st2" d="M1575.8,236v-.7h4.9v.7h-4.9ZM1580.7,243c-.4,0-.8.1-1.2.1-.4,0-.8-.1-1.1-.3-.3-.2-.5-.4-.7-.7-.1-.3-.2-.5-.2-.8,0-.3,0-.6,0-.9v-7.2h.8v7.2c0,.3,0,.6,0,.8,0,.2,0,.4.1.6.2.3.4.5.8.6.4,0,.8,0,1.4,0v.7Z"/>
    <path class="st2" d="M1582.6,243v-7.7h.8v1.8l-.2-.2c0-.2.2-.4.3-.6.1-.2.3-.3.4-.5.2-.2.4-.3.7-.4.3,0,.6-.2.8-.2.3,0,.5,0,.8,0v.8c-.3,0-.6,0-1,0s-.7.2-1,.4c-.3.2-.5.5-.6.8-.1.3-.2.6-.2.9,0,.3,0,.7,0,1v3.8h-.8Z"/>
    <path class="st2" d="M1591,243.1c-.4,0-.8,0-1.1-.2-.3-.1-.6-.3-.9-.5-.2-.2-.5-.5-.6-.8-.2-.3-.3-.6-.4-1,0-.4-.1-.8-.1-1.1v-4.2h.8v4c0,.5,0,.9.1,1.3,0,.4.2.7.4,1,.2.3.4.5.7.6.3.1.6.2,1.1.2s.8,0,1.1-.2c.3-.1.6-.3.8-.6s.3-.6.4-.9.1-.8.1-1.2h.6c0,.9-.1,1.6-.4,2.1s-.7.9-1.1,1.2c-.5.3-1,.4-1.6.4ZM1593.7,243v-1.7h0v-6h.8v7.7h-.8Z"/>
    <path class="st2" d="M1600.1,243.2c-.8,0-1.4-.2-1.9-.5-.5-.3-.9-.8-1.2-1.4-.3-.6-.4-1.3-.4-2.1,0-.8.2-1.5.4-2.1s.7-1.1,1.2-1.4c.5-.3,1.2-.5,1.9-.5s1.4.2,2,.5c.6.4,1,.9,1.2,1.5l-.8.3c-.2-.5-.5-.9-.9-1.1-.4-.3-.9-.4-1.4-.4s-1.1.1-1.5.4-.7.7-.9,1.2-.3,1.1-.3,1.7c0,1,.2,1.8.7,2.4.5.6,1.1.9,2,.9s1-.1,1.4-.4c.4-.3.7-.6.9-1.1l.8.3c-.3.7-.7,1.1-1.3,1.5-.5.3-1.2.5-1.9.5Z"/>
    <path class="st2" d="M1604.5,236v-.7h4.9v.7h-4.9ZM1609.4,243c-.4,0-.8.1-1.2.1-.4,0-.8-.1-1.1-.3-.3-.2-.5-.4-.7-.7-.1-.3-.2-.5-.2-.8,0-.3,0-.6,0-.9v-7.2h.8v7.2c0,.3,0,.6,0,.8,0,.2,0,.4.1.6.2.3.4.5.8.6.4,0,.8,0,1.4,0v.7Z"/>
    <path class="st2" d="M1614.3,243.1c-.4,0-.8,0-1.1-.2-.3-.1-.6-.3-.9-.5-.2-.2-.5-.5-.6-.8-.2-.3-.3-.6-.4-1,0-.4-.1-.8-.1-1.1v-4.2h.8v4c0,.5,0,.9.1,1.3,0,.4.2.7.4,1,.2.3.4.5.7.6.3.1.6.2,1.1.2s.8,0,1.1-.2c.3-.1.6-.3.8-.6s.3-.6.4-.9.1-.8.1-1.2h.6c0,.9-.1,1.6-.4,2.1s-.7.9-1.1,1.2c-.5.3-1,.4-1.6.4ZM1616.9,243v-1.7h0v-6h.8v7.7h-.8Z"/>
    <path class="st2" d="M1620.2,243v-7.7h.8v1.8l-.2-.2c0-.2.2-.4.3-.6.1-.2.3-.3.4-.5.2-.2.4-.3.7-.4.3,0,.6-.2.8-.2.3,0,.5,0,.8,0v.8c-.3,0-.6,0-1,0s-.7.2-1,.4c-.3.2-.5.5-.6.8-.1.3-.2.6-.2.9,0,.3,0,.7,0,1v3.8h-.8Z"/>
    <path class="st2" d="M1628.5,243.2c-.7,0-1.4-.2-1.9-.5-.5-.3-1-.8-1.2-1.4-.3-.6-.4-1.3-.4-2.2s.1-1.6.4-2.2.7-1.1,1.2-1.4,1.2-.5,1.9-.5,1.4.2,1.9.5c.5.3.9.8,1.2,1.5.3.6.4,1.4.4,2.3h-.9v-.3c0-1.1-.3-1.9-.7-2.4s-1.1-.8-1.9-.8-1.5.3-2,.9-.7,1.4-.7,2.4.2,1.8.7,2.4c.5.6,1.1.9,2,.9s1.1-.1,1.6-.4c.4-.3.8-.7,1.1-1.2l.7.3c-.3.7-.8,1.2-1.3,1.5s-1.3.5-2,.5ZM1625.5,239.3v-.7h6.1v.7h-6.1Z"/>
    <path class="st2" d="M1537.6,258.3v-10.3h3.1c.1,0,.3,0,.6,0s.5,0,.8,0c.8.1,1.4.4,1.9.9.5.5.9,1.1,1.1,1.8s.4,1.5.4,2.4-.1,1.7-.4,2.4-.6,1.3-1.1,1.8c-.5.5-1.1.8-1.9.9-.2,0-.5,0-.8,0s-.5,0-.6,0h-3.1ZM1538.5,257.5h2.2c.2,0,.4,0,.7,0s.4,0,.6,0c.6-.1,1.2-.4,1.5-.8.4-.4.7-.9.9-1.5.2-.6.3-1.3.3-2s0-1.4-.3-2c-.2-.6-.5-1.1-.9-1.5-.4-.4-.9-.6-1.5-.8-.2,0-.4,0-.6,0s-.5,0-.7,0h-2.2v8.7Z"/>
    <path class="st2" d="M1550.8,258.6c-.7,0-1.4-.2-1.9-.5-.5-.3-1-.8-1.2-1.4-.3-.6-.4-1.3-.4-2.2s.1-1.6.4-2.2.7-1.1,1.2-1.4,1.2-.5,1.9-.5,1.4.2,1.9.5c.5.3.9.8,1.2,1.5.3.6.4,1.4.4,2.3h-.9v-.3c0-1.1-.3-1.9-.7-2.4s-1.1-.8-1.9-.8-1.5.3-2,.9-.7,1.4-.7,2.4.2,1.8.7,2.4c.5.6,1.1.9,2,.9s1.1-.1,1.6-.4c.4-.3.8-.7,1.1-1.2l.7.3c-.3.7-.8,1.2-1.3,1.5s-1.3.5-2,.5ZM1547.7,254.7v-.7h6.1v.7h-6.1Z"/>
    <path class="st2" d="M1555.5,251.4v-.7h4.4v.7h-4.4ZM1556.9,258.3v-8.4c0-.2,0-.4,0-.6s0-.4.1-.5c0-.2.2-.3.3-.5.1-.1.3-.3.4-.3.2,0,.3-.1.5-.2s.4,0,.6,0h1v.7h-.9c-.4,0-.7.1-1,.3-.2.2-.3.5-.3,1v8.5h-.8Z"/>
    <path class="st2" d="M1564.5,258.6c-.7,0-1.4-.2-1.9-.5-.5-.3-1-.8-1.2-1.4-.3-.6-.4-1.3-.4-2.2s.1-1.6.4-2.2.7-1.1,1.2-1.4,1.2-.5,1.9-.5,1.4.2,1.9.5c.5.3.9.8,1.2,1.5.3.6.4,1.4.4,2.3h-.9v-.3c0-1.1-.3-1.9-.7-2.4s-1.1-.8-1.9-.8-1.5.3-2,.9-.7,1.4-.7,2.4.2,1.8.7,2.4c.5.6,1.1.9,2,.9s1.1-.1,1.6-.4c.4-.3.8-.7,1.1-1.2l.7.3c-.3.7-.8,1.2-1.3,1.5s-1.3.5-2,.5ZM1561.5,254.7v-.7h6.1v.7h-6.1Z"/>
    <path class="st2" d="M1570.1,258.3v-7.7h.8v1.7h0v6h-.8ZM1575.7,258.3v-4c0-.5,0-.9-.1-1.3,0-.4-.2-.7-.4-1-.2-.3-.4-.5-.7-.6-.3-.1-.6-.2-1.1-.2s-.8,0-1.1.2c-.3.1-.6.3-.8.6s-.3.6-.4.9-.1.8-.1,1.2h-.6c0-.9.1-1.6.4-2.1s.7-.9,1.1-1.2c.5-.3,1-.4,1.6-.4s.8,0,1.1.2c.3.1.6.3.9.5.2.2.5.5.6.8.2.3.3.6.4,1,0,.4.1.7.1,1.1v4.2h-.8Z"/>
    <path class="st2" d="M1581.7,258.5c-.9,0-1.6-.2-2.2-.6s-.9-.9-1.1-1.6h.8c.1.3.4.7.8.9.4.3,1,.4,1.6.4s1.1-.1,1.5-.4c.4-.3.6-.6.6-1.1s0-.5-.2-.6c-.1-.2-.3-.3-.7-.5-.3-.1-.9-.3-1.5-.5-.7-.2-1.3-.4-1.7-.6-.4-.2-.7-.4-.8-.6-.2-.2-.2-.5-.2-.9s.1-.8.4-1.1c.2-.3.6-.6,1-.8.4-.2.9-.3,1.5-.3s1.1,0,1.5.3c.5.2.8.5,1.1.8.3.3.4.7.5,1.2l-.8.2c0-.5-.3-.9-.8-1.2-.4-.3-.9-.4-1.6-.4-.6,0-1.1.1-1.5.4-.4.2-.6.6-.6,1s0,.4.2.6.4.3.7.4c.3.1.8.3,1.4.4.7.2,1.3.4,1.7.6.4.2.7.4.9.7s.3.6.3,1c0,.7-.3,1.3-.8,1.7-.5.4-1.3.6-2.2.6Z"/>
    <path class="st2" d="M1590,258.6c-.7,0-1.4-.2-1.9-.5-.5-.3-1-.8-1.2-1.4-.3-.6-.4-1.3-.4-2.2s.1-1.6.4-2.2.7-1.1,1.2-1.4,1.2-.5,1.9-.5,1.4.2,1.9.5c.5.3.9.8,1.2,1.5.3.6.4,1.4.4,2.3h-.9v-.3c0-1.1-.3-1.9-.7-2.4s-1.1-.8-1.9-.8-1.5.3-2,.9-.7,1.4-.7,2.4.2,1.8.7,2.4c.5.6,1.1.9,2,.9s1.1-.1,1.6-.4c.4-.3.8-.7,1.1-1.2l.7.3c-.3.7-.8,1.2-1.3,1.5s-1.3.5-2,.5ZM1586.9,254.7v-.7h6.1v.7h-6.1Z"/>
    <path class="st2" d="M1599,258.3v-10.3h3.9c0,0,.2,0,.3,0,.1,0,.2,0,.4,0,.5,0,1,.3,1.3.6.4.3.7.6.8,1.1.2.4.3.9.3,1.4s0,1-.3,1.4c-.2.4-.5.8-.8,1.1-.4.3-.8.5-1.3.6-.1,0-.3,0-.4,0-.1,0-.2,0-.3,0h-3.1v4h-.8ZM1599.9,253.5h3c0,0,.2,0,.3,0,.1,0,.2,0,.3,0,.4,0,.7-.2.9-.5.2-.2.4-.5.6-.8.1-.3.2-.7.2-1s0-.7-.2-1c-.1-.3-.3-.6-.6-.8-.2-.2-.6-.4-.9-.5-.1,0-.2,0-.3,0-.1,0-.2,0-.3,0h-3v4.7Z"/>
    <path class="st2" d="M1607.9,258.3v-10.5h.8v10.5h-.8Z"/>
    <path class="st2" d="M1613.5,258.6c-.6,0-1.1-.1-1.5-.3-.4-.2-.7-.5-.9-.8-.2-.3-.3-.7-.3-1.1s0-.8.3-1.1.4-.5.7-.7.6-.3,1-.4c.4,0,.9-.2,1.4-.2.5,0,1-.1,1.4-.2.4,0,.8,0,1.1-.1l-.3.2c0-.8-.1-1.5-.5-1.9-.3-.4-.9-.6-1.7-.6s-1.1.1-1.4.4c-.4.3-.6.7-.8,1.2l-.8-.2c.2-.7.5-1.2,1.1-1.6.5-.4,1.2-.6,2-.6s1.3.1,1.8.4c.5.3.8.7,1,1.2,0,.2.1.4.2.7,0,.3,0,.5,0,.8v4.8h-.8v-2h.3c-.2.8-.6,1.3-1.2,1.7-.6.4-1.3.6-2.1.6ZM1613.6,257.8c.5,0,1,0,1.4-.3.4-.2.7-.5,1-.8.2-.3.4-.7.5-1.2,0-.3,0-.5,0-.8s0-.5,0-.7l.4.2c-.3,0-.7,0-1.1.1-.4,0-.9,0-1.3.2-.4,0-.9.1-1.2.2-.2,0-.4.2-.7.3-.2.1-.4.3-.6.5-.1.2-.2.5-.2.8s0,.5.2.7c.1.2.3.4.6.6.3.2.6.2,1.1.2Z"/>
    <path class="st2" d="M1618.7,251.4v-.7h4.9v.7h-4.9ZM1623.7,258.3c-.4,0-.8.1-1.2.1-.4,0-.8-.1-1.1-.3-.3-.2-.5-.4-.7-.7-.1-.3-.2-.5-.2-.8,0-.3,0-.6,0-.9v-7.2h.8v7.2c0,.3,0,.6,0,.8,0,.2,0,.4.1.6.2.3.4.5.8.6.4,0,.8,0,1.4,0v.7Z"/>
    <path class="st2" d="M1625.2,251.4v-.7h4.4v.7h-4.4ZM1626.6,258.3v-8.4c0-.2,0-.4,0-.6s0-.4.1-.5c0-.2.2-.3.3-.5.1-.1.3-.3.4-.3.2,0,.3-.1.5-.2s.4,0,.6,0h1v.7h-.9c-.4,0-.7.1-1,.3-.2.2-.3.5-.3,1v8.5h-.8Z"/>
    <path class="st2" d="M1634.3,258.6c-.8,0-1.4-.2-1.9-.5-.5-.3-.9-.8-1.2-1.4-.3-.6-.4-1.3-.4-2.1s.1-1.5.4-2.1c.3-.6.7-1.1,1.2-1.4s1.2-.5,1.9-.5,1.4.2,2,.5c.5.3.9.8,1.2,1.4s.4,1.3.4,2.1-.1,1.5-.4,2.1c-.3.6-.7,1.1-1.2,1.4-.5.3-1.2.5-1.9.5ZM1634.3,257.8c.9,0,1.6-.3,2-.9.5-.6.7-1.4.7-2.4s-.2-1.8-.7-2.4c-.5-.6-1.1-.9-2-.9s-1.1.1-1.5.4-.7.7-.9,1.1c-.2.5-.3,1.1-.3,1.7,0,1,.2,1.8.7,2.4s1.1.9,2,.9Z"/>
    <path class="st2" d="M1639.9,258.3v-7.7h.8v1.8l-.2-.2c0-.2.2-.4.3-.6.1-.2.3-.3.4-.5.2-.2.4-.3.7-.4.3,0,.6-.2.8-.2.3,0,.5,0,.8,0v.8c-.3,0-.6,0-1,0s-.7.2-1,.4c-.3.2-.5.5-.6.8-.1.3-.2.6-.2.9,0,.3,0,.7,0,1v3.8h-.8Z"/>
    <path class="st2" d="M1645.4,258.3v-7.7h.8v1.7h0v6h-.8ZM1649.9,258.3v-5.1c0-.6-.2-1.1-.5-1.5-.3-.4-.8-.6-1.4-.6s-1,.2-1.4.6c-.4.4-.5.9-.5,1.6l-.6-.3c0-.5.1-.9.3-1.3s.5-.7.9-.9c.4-.2.9-.3,1.4-.3s.9,0,1.3.3c.4.2.7.5.9.9.2.4.3.9.3,1.5v5.3h-.8ZM1654.5,258.3v-5.2c0-.6-.2-1.1-.5-1.5s-.8-.5-1.3-.5-.6,0-.9.2c-.3.1-.5.4-.7.7-.2.3-.3.7-.3,1.3h-.6c0-.7,0-1.1.3-1.6.2-.4.5-.7.9-1s.9-.3,1.4-.3c.8,0,1.4.2,1.8.7.5.5.7,1.1.7,1.9v5.3h-.8Z"/>
  </g>
  <g>
    <path class="st2" d="M1542.4,294.9c-1,0-1.9-.2-2.6-.7-.7-.5-1.2-1.1-1.6-1.9-.4-.8-.5-1.7-.5-2.8s.2-2,.5-2.8c.4-.8.9-1.4,1.6-1.9.7-.5,1.6-.7,2.6-.7s2.2.3,2.9.9c.7.6,1.2,1.4,1.5,2.5l-.8.2c-.2-.9-.6-1.5-1.2-2.1-.6-.5-1.4-.8-2.4-.8s-1.5.2-2.1.6c-.6.4-1,.9-1.3,1.6-.3.7-.4,1.5-.4,2.4,0,.9.1,1.7.4,2.4.3.7.7,1.2,1.3,1.6s1.3.6,2.1.6,1.8-.3,2.4-.8c.6-.5,1-1.2,1.2-2l.8.2c-.3,1-.8,1.9-1.5,2.5-.7.6-1.7.9-2.9.9Z"/>
    <path class="st2" d="M1552.1,294.9c-.8,0-1.4-.2-1.9-.5-.5-.3-.9-.8-1.2-1.4-.3-.6-.4-1.3-.4-2.1s.1-1.5.4-2.1c.3-.6.7-1.1,1.2-1.4s1.2-.5,1.9-.5,1.4.2,2,.5c.5.3.9.8,1.2,1.4s.4,1.3.4,2.1-.1,1.5-.4,2.1c-.3.6-.7,1.1-1.2,1.4-.5.3-1.2.5-1.9.5ZM1552.1,294.1c.9,0,1.6-.3,2-.9.5-.6.7-1.4.7-2.4s-.2-1.8-.7-2.4c-.5-.6-1.1-.9-2-.9s-1.1.1-1.5.4-.7.7-.9,1.1c-.2.5-.3,1.1-.3,1.7,0,1,.2,1.8.7,2.4s1.1.9,2,.9Z"/>
    <path class="st2" d="M1557.7,298.1v-11.1h.8v5.9h0v5.2h-.8ZM1561.1,294.9c-.7,0-1.3-.2-1.8-.5s-.8-.8-1.1-1.5c-.3-.6-.4-1.3-.4-2.1s.1-1.5.4-2.1c.3-.6.6-1.1,1.1-1.4.5-.4,1.1-.5,1.8-.5s1.3.2,1.8.5c.5.4.9.8,1.1,1.5.3.6.4,1.3.4,2.1s-.1,1.5-.4,2.1-.6,1.1-1.1,1.5c-.5.4-1.1.5-1.8.5ZM1561.1,294.1c.6,0,1-.1,1.4-.4.4-.3.7-.7.9-1.2.2-.5.3-1.1.3-1.7s0-1.2-.3-1.7c-.2-.5-.5-.9-.8-1.2-.4-.3-.9-.4-1.4-.4s-1,.1-1.4.4-.7.7-.9,1.2-.3,1.1-.3,1.7,0,1.2.3,1.7c.2.5.5.9.9,1.2s.9.4,1.4.4Z"/>
    <path class="st2" d="M1567.4,298.1l1.5-4v1.2s-3.4-8.3-3.4-8.3h.9l2.9,7.2h-.5l2.6-7.2h.9l-4.1,11.1h-.9Z"/>
    <path class="st2" d="M1574.1,294.7v-7.7h.8v1.8l-.2-.2c0-.2.2-.4.3-.6.1-.2.3-.3.4-.5.2-.2.4-.3.7-.4.3,0,.6-.2.8-.2.3,0,.5,0,.8,0v.8c-.3,0-.6,0-1,0s-.7.2-1,.4c-.3.2-.5.5-.6.8-.1.3-.2.6-.2.9,0,.3,0,.7,0,1v3.8h-.8Z"/>
    <path class="st2" d="M1579.6,285.5v-1h.8v1h-.8ZM1579.6,294.7v-7.7h.8v7.7h-.8Z"/>
    <path class="st2" d="M1586,294.9c-.7,0-1.3-.2-1.8-.5-.5-.4-.9-.8-1.1-1.5-.3-.6-.4-1.3-.4-2.1s.1-1.4.4-2.1c.3-.6.6-1.1,1.1-1.5.5-.4,1.1-.5,1.8-.5s1.3.2,1.8.5c.5.4.9.8,1.1,1.4.3.6.4,1.3.4,2.1s-.1,1.5-.4,2.1c-.3.6-.6,1.1-1.1,1.5s-1.1.5-1.8.5ZM1586.1,298.4c-.4,0-.8,0-1.1-.2-.4-.1-.7-.3-1.1-.5s-.6-.6-.8-1l.7-.4c.2.5.6.8,1,1,.4.2.9.3,1.3.3s1.1-.1,1.5-.3c.4-.2.6-.6.8-1,.2-.5.2-1,.2-1.7v-2h0v-5.4h.7v7.4c0,.2,0,.4,0,.7,0,.2,0,.4,0,.6,0,.6-.3,1.1-.5,1.5s-.6.7-1.1.9c-.5.2-1,.3-1.7.3ZM1586.1,294.1c.6,0,1.1-.1,1.4-.4s.7-.7.9-1.2c.2-.5.3-1.1.3-1.7s0-1.2-.3-1.7-.5-.9-.9-1.2-.9-.4-1.4-.4-1.1.1-1.4.4-.7.7-.8,1.2c-.2.5-.3,1-.3,1.7s0,1.2.3,1.7c.2.5.5.9.9,1.2.4.3.8.4,1.4.4Z"/>
    <path class="st2" d="M1591.9,294.7v-10.3h.8v5.9h0v4.3h-.8ZM1597.5,294.7v-4c0-.5,0-.9-.1-1.3,0-.4-.2-.7-.4-1-.2-.3-.4-.5-.7-.6-.3-.1-.6-.2-1.1-.2s-.8,0-1.1.2c-.3.1-.6.3-.8.6s-.3.6-.4.9-.1.8-.1,1.2h-.6c0-.9.1-1.6.4-2.1s.7-.9,1.1-1.2c.5-.3,1-.4,1.6-.4s.8,0,1.1.2c.3.1.6.3.9.5.2.2.5.5.6.8.2.3.3.6.4,1,0,.4.1.7.1,1.1v4.2h-.8Z"/>
    <path class="st2" d="M1599.6,287.8v-.7h4.9v.7h-4.9ZM1604.6,294.7c-.4,0-.8.1-1.2.1-.4,0-.8-.1-1.1-.3-.3-.2-.5-.4-.7-.7-.1-.3-.2-.5-.2-.8,0-.3,0-.6,0-.9v-7.2h.8v7.2c0,.3,0,.6,0,.8,0,.2,0,.4.1.6.2.3.4.5.8.6.4,0,.8,0,1.4,0v.7Z"/>
    <path class="st2" d="M1614.6,294.9c-.7,0-1.4-.1-2-.4-.6-.3-1.2-.6-1.6-1.1-.5-.5-.8-1-1.1-1.6-.3-.6-.4-1.3-.4-2s.1-1.4.4-2c.3-.6.6-1.2,1.1-1.6.5-.5,1-.8,1.6-1.1.6-.3,1.3-.4,2-.4s1.4.1,2,.4c.6.3,1.2.6,1.6,1.1s.8,1,1.1,1.6c.3.6.4,1.3.4,2s-.1,1.4-.4,2c-.3.6-.6,1.2-1.1,1.6-.5.5-1,.8-1.6,1.1-.6.3-1.3.4-2,.4ZM1614.6,294.1c.6,0,1.1-.1,1.7-.3.5-.2,1-.5,1.4-.9s.7-.8.9-1.4c.2-.5.3-1.1.3-1.7s-.1-1.1-.3-1.7-.5-1-.9-1.4-.8-.7-1.4-.9c-.5-.2-1.1-.3-1.7-.3s-1.2.1-1.7.3c-.5.2-1,.5-1.4.9s-.7.8-.9,1.4c-.2.5-.3,1.1-.3,1.7s.1,1.2.3,1.7c.2.5.5,1,.9,1.4s.8.7,1.4.9c.5.2,1.1.3,1.7.3ZM1614.6,292.8c-.4,0-.8,0-1.1-.2-.3-.1-.6-.4-.9-.7-.2-.3-.4-.7-.5-1,0-.4-.1-.7-.1-1.1,0-.4,0-.7.1-1.1,0-.4.2-.7.5-1,.3-.3.6-.5.9-.7.3-.2.7-.2,1.2-.2s.5,0,.7,0c.2,0,.4.1.7.3.2.1.4.3.6.5.2.2.3.4.4.7l-.7.2c0-.2-.2-.3-.3-.4-.1-.1-.2-.3-.4-.4-.1-.1-.3-.2-.5-.2-.2,0-.3,0-.5,0-.3,0-.6,0-.8.2-.2.1-.5.3-.6.5-.2.2-.3.5-.3.7,0,.3,0,.6,0,.8s0,.6.1.9c0,.3.2.5.3.7.2.2.4.4.6.5.2.1.5.2.8.2s.7,0,1-.3c.1,0,.3-.2.4-.3s.2-.3.3-.4l.7.2c-.1.3-.2.5-.4.7s-.3.3-.5.4c-.2.1-.4.2-.7.3s-.5.1-.8.1Z"/>
    <path class="st2" d="M1621,294.7v-.8s4.7-4.3,4.7-4.3c.4-.4.7-.7.8-1.1.1-.3.2-.7.2-1.1s-.1-.9-.3-1.2c-.2-.4-.5-.7-.9-.9-.4-.2-.8-.3-1.2-.3s-.9.1-1.2.3c-.4.2-.7.5-.9.9-.2.4-.3.8-.3,1.2h-.8c0-.6.1-1.2.4-1.6.3-.5.7-.9,1.2-1.2.5-.3,1-.4,1.7-.4s1.2.1,1.7.4c.5.3.9.7,1.2,1.2.3.5.4,1,.4,1.6s0,.8-.1,1.1-.2.6-.4.9c-.2.3-.5.6-.8.8l-4.5,4-.2-.4h6v.8h-6.6Z"/>
    <path class="st2" d="M1632.7,294.9c-.6,0-1.2-.1-1.6-.4-.5-.3-.9-.7-1.2-1.2-.3-.5-.4-1-.4-1.6v-4.2c0-.6.1-1.2.4-1.6.3-.5.7-.9,1.2-1.2.5-.3,1-.4,1.6-.4s1.2.1,1.6.4c.5.3.9.7,1.2,1.2.3.5.4,1,.4,1.6v4.2c0,.6-.1,1.2-.4,1.6-.3.5-.7.9-1.2,1.2-.5.3-1,.4-1.6.4ZM1632.7,294.1c.4,0,.8-.1,1.2-.3s.7-.5.9-.9c.2-.4.3-.8.3-1.2v-4.3c0-.4-.1-.8-.3-1.2-.2-.4-.5-.7-.9-.9s-.8-.3-1.2-.3-.8.1-1.2.3c-.4.2-.7.5-.9.9-.2.4-.3.8-.3,1.2v4.3c0,.4.1.8.3,1.2.2.4.5.7.9.9.4.2.8.3,1.2.3Z"/>
    <path class="st2" d="M1637.7,294.7v-.8s4.7-4.3,4.7-4.3c.4-.4.7-.7.8-1.1.1-.3.2-.7.2-1.1s-.1-.9-.3-1.2c-.2-.4-.5-.7-.9-.9-.4-.2-.8-.3-1.2-.3s-.9.1-1.2.3c-.4.2-.7.5-.9.9-.2.4-.3.8-.3,1.2h-.8c0-.6.1-1.2.4-1.6.3-.5.7-.9,1.2-1.2.5-.3,1-.4,1.7-.4s1.2.1,1.7.4c.5.3.9.7,1.2,1.2.3.5.4,1,.4,1.6s0,.8-.1,1.1-.2.6-.4.9c-.2.3-.5.6-.8.8l-4.5,4-.2-.4h6v.8h-6.6Z"/>
    <path class="st2" d="M1649.6,294.9c-.6,0-1.2-.2-1.7-.5-.5-.3-.9-.7-1.2-1.3-.3-.5-.5-1.1-.5-1.8v-3.7c0-.7.2-1.2.5-1.8s.7-1,1.3-1.3c.5-.3,1.1-.5,1.8-.5s1.2.1,1.7.4.9.7,1.2,1.2l-.7.5c-.2-.4-.5-.7-.9-.9-.4-.2-.8-.3-1.3-.3s-1,.1-1.4.4c-.4.2-.7.6-.9,1s-.3.8-.3,1.3v2.4l-.2-.3c.3-.5.7-.9,1.2-1.3.5-.3,1.1-.5,1.7-.5s1.2.2,1.7.5c.5.3.9.7,1.2,1.2.3.5.5,1.1.5,1.7s-.2,1.2-.5,1.7-.7.9-1.3,1.2c-.5.3-1.1.5-1.7.5ZM1649.6,294.1c.5,0,.9-.1,1.3-.4.4-.2.7-.6.9-.9.2-.4.3-.8.3-1.3s-.1-.9-.3-1.3c-.2-.4-.5-.7-.9-.9s-.8-.3-1.3-.3-.9.1-1.3.3-.7.5-.9.9-.4.8-.4,1.3.1.9.4,1.3c.2.4.6.7.9.9.4.2.8.4,1.3.4Z"/>
  </g>
  <line class="st0" x1="1517.6" y1="76.5" x2="1517.6" y2="121.4"/>
  <line class="st0" x1="1517.6" y1="145.6" x2="1517.6" y2="190.6"/>
  <line class="st0" x1="1517.4" y1="214.7" x2="1517.4" y2="259.7"/>
  <line class="st0" x1="1517.4" y1="281.9" x2="1517.4" y2="326.9"/>
  <g>
    <g>
      <path class="st2" d="M1574.7,321l3.7-6.2c1.1-1.9,1.9-2.3,4.7-2.3h3.3v8.5h-1.7v-7c-3.1,0-3.8-.4-5.3,2.1l-2.9,4.9h-1.8Z"/>
      <path class="st2" d="M1582.6,319.2v1.8h-3.1l.3-.6c.2-.4.4-.8.7-.9,0,0,.4-.3,1-.3h1,0Z"/>
    </g>
    <g class="st3">
      <g class="st3">
        <g class="st3">
          <path class="st2" d="M1607.9,317.5c0,.3,0,.5-.1.7s-.2.4-.4.6c-.2.2-.3.3-.6.4s-.5.1-.7.1-.5,0-.7-.1-.4-.2-.6-.4c-.2-.2-.3-.4-.4-.6s-.1-.5-.1-.7,0-.5.1-.7.2-.4.4-.6.3-.3.6-.4.5-.1.7-.1.5,0,.7.1.4.2.6.4c.2.2.3.4.4.6s.1.5.1.7ZM1607.6,317.5c0-.2,0-.4-.1-.6,0-.2-.2-.3-.3-.5-.1-.1-.3-.2-.5-.3s-.4-.1-.6-.1-.4,0-.6.1c-.2,0-.3.2-.5.3-.1.1-.2.3-.3.5s-.1.4-.1.6,0,.4.1.6c0,.2.2.3.3.5.1.1.3.2.5.3.2,0,.4.1.6.1s.4,0,.6-.1c.2,0,.3-.2.5-.3.1-.1.2-.3.3-.5,0-.2.1-.4.1-.6ZM1606.9,317.8c0,.1,0,.2,0,.3,0,0-.1.2-.2.2,0,0-.2.1-.3.1,0,0-.2,0-.3,0-.2,0-.3,0-.4,0-.1,0-.2-.2-.3-.3,0,0-.1-.2-.1-.3s0-.2,0-.3,0-.3,0-.4c0-.1,0-.2.2-.3,0,0,.2-.2.3-.2.1,0,.2,0,.4,0s.2,0,.3,0c0,0,.2,0,.3.1,0,0,.1.1.2.2,0,0,0,.2,0,.3h-.4c0-.1,0-.2-.2-.3,0,0-.2,0-.3,0s-.1,0-.2,0c0,0-.1,0-.2.1,0,0,0,.1-.1.2,0,0,0,.2,0,.3s0,.2,0,.3c0,0,0,.2.1.2,0,0,0,0,.2.1,0,0,.1,0,.2,0,.1,0,.2,0,.3,0,0,0,.1-.2.2-.3h.4Z"/>
        </g>
      </g>
    </g>
    <g>
      <path class="st2" d="M1589.6,310.5v5.5h-.8v-5.5h-7.9v-.6h10.6v.6h-1.9,0Z"/>
      <path class="st2" d="M1592.5,315.1v-5.3h4.2v.6h-3.4v1.6h3v.6h-3v1.8h3.4v.6h-4.2Z"/>
      <path class="st2" d="M1602.4,313.4c0,.3,0,.5-.2.7s-.3.4-.4.5-.4.3-.7.4c-.3,0-.6.2-.9.2s-.6,0-.9-.1c-.3,0-.5-.2-.8-.4-.2-.1-.3-.3-.4-.4,0-.2-.2-.3-.2-.5,0-.2,0-.4,0-.6v-1.3c0-.2,0-.4,0-.6s.1-.4.2-.5c0-.2.2-.3.4-.4.2-.2.5-.3.8-.4s.6-.1.9-.1.7,0,.9.2c.3,0,.5.2.7.4s.3.3.4.5.2.4.2.7h-.8c0-.1,0-.3,0-.4s-.1-.2-.3-.3c-.1,0-.3-.2-.5-.3s-.4,0-.7,0-.4,0-.6,0-.4.2-.5.3c-.1,0-.2.2-.3.4s-.1.3-.2.4c0,.2,0,.3,0,.4v.9c0,.2,0,.3,0,.4s0,.3.2.4.2.3.3.4c.2.1.3.2.5.3s.4,0,.6,0,.4,0,.7,0,.4-.2.5-.3c0,0,.2-.2.3-.4,0-.1,0-.3,0-.4h.8Z"/>
      <path class="st2" d="M1607.5,315.1v-2.4h-3.1v2.4h-.8v-5.3h.8v2.2h3.1v-2.2h.8v5.3h-.8Z"/>
      <path class="st2" d="M1588.8,321v-5.3h.8v4.6h3.1v.6h-3.9Z"/>
      <path class="st2" d="M1597.4,321l-.5-1.3h-2.7l-.5,1.3h-.8l2.2-5.3h.9l2.2,5.3h-.9ZM1595.5,316.4l-1.1,2.7h2.2l-1.1-2.7Z"/>
      <path class="st2" d="M1603.8,319.5c0,.2,0,.4-.1.5,0,.2-.2.3-.4.4-.2.2-.4.3-.7.4s-.6.1-.9.1h-2.6v-5.3h2.5c.3,0,.6,0,.9.1s.5.2.7.4c.1,0,.2.2.3.4s0,.3,0,.5,0,.5-.2.7-.4.4-.7.4c.2,0,.3,0,.4.2s.2.2.3.3c0,0,.2.2.2.4s0,.3,0,.4h0ZM1602.8,317.1c0-.1,0-.3,0-.4,0,0-.1-.2-.3-.3,0,0-.2-.1-.4-.2-.1,0-.3,0-.4,0h-1.8v1.7h1.8c.3,0,.6,0,.8-.2.2-.1.3-.4.3-.6h0ZM1603,319.4c0-.1,0-.3,0-.4,0,0-.2-.2-.3-.3s-.3-.1-.4-.2c-.2,0-.3,0-.5,0h-1.8v1.8h1.8c.2,0,.3,0,.5,0,.2,0,.3,0,.4-.2s.2-.2.3-.3c0,0,0-.3,0-.4h0Z"/>
    </g>
    <path class="st2" d="M1571.7,321s5.2-8.1,5.7-8.8,1.1-1.7,3.5-1.7v-.6s-2.1-.1-3.3,1.3c-1.2,1.4-6.5,9.8-6.5,9.8h.8,0Z"/>
  </g>
  <g>
    <path class="st2" d="M1607.5,326.6h-58.8c-6.1,0-11.1-5-11.1-11.1s5-11.1,11.1-11.1h58.8c6.1,0,11.1,5,11.1,11.1s-5,11.1-11.1,11.1ZM1548.7,304.8c-5.9,0-10.6,4.8-10.6,10.6s4.8,10.6,10.6,10.6h58.8c5.9,0,10.6-4.8,10.6-10.6s-4.8-10.6-10.6-10.6h-58.8Z"/>
    <g class="st4">
      <g>
        <path class="st2" d="M1548.7,304.6h0c-6.1,0-11,4.8-11,10.9h.2c0-5.9,4.8-10.8,10.8-10.8h0c0,0,0,0,0,0ZM1607.5,304.6h0c5.9,0,10.8,4.9,10.8,10.9h.2c0-6.1-4.9-11-11-11h0c0,0,0,0,0,0ZM1618.4,315.5h0c0,5.9-4.8,10.8-10.8,10.8v.2c6.1,0,11-4.9,11-11h0,0ZM1548.7,326.3h0c-5.9,0-10.8-4.9-10.8-10.9h-.2c0,6.1,4.9,11,11,11h0c0,0,0,0,0,0ZM1607.5,326.3h0c0,0-58.8,0-58.8,0v.2h58.8ZM1548.7,304.6h0c0,0,58.8,0,58.8,0v-.2h-58.8Z"/>
        <path class="st2" d="M1607.7,326.7h-59.3c-6.1-.2-11-5.1-11-11.2v-.2h0c.1-6,5-10.8,10.9-10.9h0s59.3,0,59.3,0h0c6.1.2,11,5.1,11,11.2v.2h0c-.1,6-5,10.9-10.9,11h0ZM1548.7,326h58.8c5.8,0,10.5-4.7,10.5-10.5s-4.7-10.5-10.5-10.5h-58.7c-5.8,0-10.5,4.7-10.5,10.5v.2h0c.1,5.7,4.8,10.3,10.5,10.3Z"/>
      </g>
    </g>
  </g>
  <path class="st2" d="M1551.7,311.3h11.8s0,0,0,0,0,0,0,0h-11.8c-.6,0-1.1.5-1.1,1.1v.6s0,0,0,0,0,0,0,0v-.6c0-.6-.5-1.1-1.1-1.1h-1s0,0,0,0,0,0,0,0h1c.6,0,1.1-.5,1.1-1.1v-.6s0,0,0,0,0,0,0,0v.6c0,.6.5,1.1,1.1,1.1Z"/>
  <path class="st2" d="M1551.7,319h11.8s0,0,0,0,0,0,0,0h-11.8c-.6,0-1.1.5-1.1,1.1v.6s0,0,0,0,0,0,0,0v-.6c0-.6-.5-1.1-1.1-1.1h-1s0,0,0,0,0,0,0,0h1c.6,0,1.1-.5,1.1-1.1v-.6s0,0,0,0,0,0,0,0v.6c0,.6.5,1.1,1.1,1.1Z"/>
  <path class="st2" d="M1547.2,315h11.8s0,0,0,0,0,0,0,0h-11.8c-.6,0-1.1.5-1.1,1.1v.6s0,0,0,0,0,0,0,0v-.6c0-.6-.5-1.1-1.1-1.1h-1s0,0,0,0,0,0,0,0h1c.6,0,1.1-.5,1.1-1.1v-.6s0,0,0,0,0,0,0,0v.6c0,.6.5,1.1,1.1,1.1Z"/>
  <g>
    <path class="st2" d="M37.4,326.7l65.9-109.2c19.9-33,33-40.7,83.5-40.7h58.1v149.9h-30.2v-120.7c-75.8,0-72.5-2.2-95.9,36.5l-48.8,84.2h-32.7Z"/>
    <path class="st2" d="M171.8,295.5v31.1h-54.2l5.3-10.1c3.9-6.9,7.1-13.3,12.8-16.2,0,0,6.6-4.6,18.1-4.6h18.3l-.2-.2Z"/>
  </g>
  <path class="st2" d="M45.2,74.6l54.9,90.9c16.6,27.4,27.4,33.9,69.5,33.9h70s0-124.8,0-124.8h-25.1s0,100.5,0,100.5c-63.1,0-72,1.8-91.4-30.3l-40.6-70.1h-37.3Z"/>
</svg>