<?xml version="1.0" encoding="UTF-8"?>
<svg id="Layer_1" xmlns="http://www.w3.org/2000/svg" xmlns:xlink="http://www.w3.org/1999/xlink" version="1.1" viewBox="0 0 1920 363.3">
  <!-- Generator: Adobe Illustrator 30.6.0, SVG Export Plug-In . SVG Version: 2.1.4 Build 109)  -->
  <defs>
    <style>
      .st0 {
        font-size: 14.3px;
      }

      .st0, .st1 {
        font-family: Sk-Modernist-Regular, Sk-Modernist;
      }

      .st0, .st1, .st2 {
        fill: #fff;
      }

      .st3 {
        fill: none;
        stroke: #fff;
        stroke-miterlimit: 10;
      }

      .st1 {
        font-size: 367.4px;
      }

      .st4 {
        isolation: isolate;
      }

      .st5 {
        clip-path: url(#clippath);
      }
    </style>
    <clipPath id="clippath">
      <path class="st2" d="M1784.3,326.5h-58.8c-6.1,0-11.1-5-11.1-11.1s5-11.1,11.1-11.1h58.8c6.1,0,11.1,5,11.1,11.1s-5,11.1-11.1,11.1ZM1725.5,304.8c-5.9,0-10.6,4.8-10.6,10.6s4.8,10.6,10.6,10.6h58.8c5.9,0,10.6-4.8,10.6-10.6s-4.8-10.6-10.6-10.6h-58.8Z"/>
    </clipPath>
  </defs>
  <text class="st1" transform="translate(343.5 331.6)"><tspan x="0" y="0">Bastion</tspan></text>
  <g>
    <g>
      <path class="st2" d="M70.2,208.2l54.4-90.2c16.4-27.2,27.2-33.6,69-33.6h48v123.9h-24.9v-102.3c-46,0-55-5.2-77.1,30.6l-42.3,71.7h-27.1Z"/>
      <path class="st2" d="M186.1,182.5v25.6h-44.9l4.3-8.4c3.2-5.6,5.9-10.9,10.6-13.5,0,0,5.5-3.7,14.9-3.7h15Z"/>
    </g>
    <g>
      <path class="st2" d="M332.5,208.2l-54.4,90.2c-16.4,27.2-27.2,33.6-69,33.6h-48v-123.9h24.9v102.3c46,0,55,5.2,77.1-30.6l42.3-71.7h27.1Z"/>
      <path class="st2" d="M216.6,233.8v-25.6h44.9l-4.3,8.4c-3.2,5.6-5.9,10.9-10.6,13.5,0,0-5.5,3.7-14.9,3.7h-15Z"/>
    </g>
  </g>
  <text class="st0" transform="translate(1720.1191 92.467)"><tspan x="0" y="0">You are </tspan><tspan x="0" y="15.4">now </tspan><tspan x="0" y="30.8">entering</tspan></text>
  <text class="st0" transform="translate(1713.6904 161.5988)"><tspan x="0" y="0">Time: 3 mns </tspan><tspan x="0" y="15.4">scroll </tspan><tspan x="0" y="30.8">to explore</tspan></text>
  <text class="st0" transform="translate(1713.4355 230.7317)"><tspan x="0" y="0">Intelligence </tspan><tspan x="0" y="15.4">Infrastructure </tspan><tspan x="0" y="30.8">Defense Platform</tspan></text>
  <text class="st0" transform="translate(1714.1191 297.8713)"><tspan x="0" y="0">Copyright ©2026 </tspan></text>
  <line class="st3" x1="1694.4" y1="79.6" x2="1694.4" y2="124.6"/>
  <line class="st3" x1="1694.4" y1="148.7" x2="1694.4" y2="193.7"/>
  <line class="st3" x1="1694.2" y1="217.9" x2="1694.2" y2="262.9"/>
  <line class="st3" x1="1694.2" y1="285" x2="1694.2" y2="330"/>
  <g>
    <g>
      <path class="st2" d="M1751.5,320.9l3.7-6.2c1.1-1.9,1.9-2.3,4.7-2.3h3.3v8.5h-1.7v-7c-3.1,0-3.8-.4-5.3,2.1l-2.9,4.9s-1.8,0-1.8,0Z"/>
      <path class="st2" d="M1759.4,319.2v1.8h-3.1l.3-.6c.2-.4.4-.8.7-.9,0,0,.4-.3,1-.3h1,0Z"/>
    </g>
    <g class="st4">
      <g class="st4">
        <g class="st4">
          <path class="st2" d="M1784.7,317.5c0,.3,0,.5-.1.7s-.2.4-.4.6c-.2.2-.3.3-.6.4s-.5.1-.7.1-.5,0-.7-.1-.4-.2-.6-.4c-.2-.2-.3-.4-.4-.6s-.1-.5-.1-.7,0-.5.1-.7.2-.4.4-.6.3-.3.6-.4.5-.1.7-.1.5,0,.7.1.4.2.6.4c.2.2.3.4.4.6s.1.5.1.7ZM1784.3,317.5c0-.2,0-.4-.1-.6,0-.2-.2-.3-.3-.5-.1-.1-.3-.2-.5-.3s-.4-.1-.6-.1-.4,0-.6.1c-.2,0-.3.2-.5.3-.1.1-.2.3-.3.5s-.1.4-.1.6,0,.4.1.6c0,.2.2.3.3.5.1.1.3.2.5.3.2,0,.4.1.6.1s.4,0,.6-.1c.2,0,.3-.2.5-.3.1-.1.2-.3.3-.5,0-.2.1-.4.1-.6ZM1783.7,317.8c0,.1,0,.2,0,.3,0,0-.1.2-.2.2,0,0-.2.1-.3.1,0,0-.2,0-.3,0-.2,0-.3,0-.4,0-.1,0-.2-.2-.3-.3,0,0-.1-.2-.1-.3s0-.2,0-.3,0-.3,0-.4c0-.1,0-.2.2-.3,0,0,.2-.2.3-.2.1,0,.2,0,.4,0s.2,0,.3,0c0,0,.2,0,.3.1,0,0,.1.1.2.2,0,0,0,.2,0,.3h-.4c0-.1,0-.2-.2-.3,0,0-.2,0-.3,0s-.1,0-.2,0c0,0-.1,0-.2.1,0,0,0,.1-.1.2,0,0,0,.2,0,.3s0,.2,0,.3c0,0,0,.2.1.2,0,0,0,0,.2.1,0,0,.1,0,.2,0,.1,0,.2,0,.3,0,0,0,.1-.2.2-.3h.4Z"/>
        </g>
      </g>
    </g>
    <g>
      <path class="st2" d="M1766.4,310.4v5.5h-.8v-5.5h-7.9v-.6h10.6v.6h-1.9,0Z"/>
      <path class="st2" d="M1769.3,315v-5.3h4.2v.6h-3.4v1.6h3v.6h-3v1.8h3.4v.6h-4.2Z"/>
      <path class="st2" d="M1779.2,313.4c0,.3,0,.5-.2.7s-.3.4-.4.5-.4.3-.7.4c-.3,0-.6.2-.9.2s-.6,0-.9-.1c-.3,0-.5-.2-.8-.4-.2-.1-.3-.3-.4-.4,0-.2-.2-.3-.2-.5,0-.2,0-.4,0-.6v-1.3c0-.2,0-.4,0-.6s.1-.4.2-.5c0-.2.2-.3.4-.4.2-.2.5-.3.8-.4s.6-.1.9-.1.7,0,.9.2c.3,0,.5.2.7.4s.3.3.4.5.2.4.2.7h-.8c0-.1,0-.3,0-.4s-.1-.2-.3-.3c-.1,0-.3-.2-.5-.3s-.4,0-.7,0-.4,0-.6,0-.4.2-.5.3c-.1,0-.2.2-.3.4s-.1.3-.2.4c0,.2,0,.3,0,.4v.9c0,.2,0,.3,0,.4s0,.3.2.4.2.3.3.4c.2.1.3.2.5.3s.4,0,.6,0,.4,0,.7,0,.4-.2.5-.3c0,0,.2-.2.3-.4,0-.1,0-.3,0-.4h.8Z"/>
      <path class="st2" d="M1784.2,315v-2.4h-3.1v2.4h-.8v-5.3h.8v2.2h3.1v-2.2h.8v5.3h-.8Z"/>
      <path class="st2" d="M1765.6,320.9v-5.3h.8v4.6h3.1v.6h-3.9Z"/>
      <path class="st2" d="M1774.2,320.9l-.5-1.3h-2.7l-.5,1.3h-.8l2.2-5.3h.9l2.2,5.3h-.9ZM1772.3,316.3l-1.1,2.7h2.2l-1.1-2.7Z"/>
      <path class="st2" d="M1780.6,319.4c0,.2,0,.4-.1.5,0,.2-.2.3-.4.4-.2.2-.4.3-.7.4s-.6.1-.9.1h-2.6v-5.3h2.5c.3,0,.6,0,.9.1s.5.2.7.4c.1,0,.2.2.3.4s0,.3,0,.5,0,.5-.2.7-.4.4-.7.4c.2,0,.3,0,.4.2s.2.2.3.3c0,0,.2.2.2.4s0,.3,0,.4h0ZM1779.6,317.1c0-.1,0-.3,0-.4,0,0-.1-.2-.3-.3,0,0-.2-.1-.4-.2-.1,0-.3,0-.4,0h-1.8v1.7h1.8c.3,0,.6,0,.8-.2.2-.1.3-.4.3-.6h0ZM1779.8,319.4c0-.1,0-.3,0-.4,0,0-.2-.2-.3-.3s-.3-.1-.4-.2c-.2,0-.3,0-.5,0h-1.8v1.8h1.8c.2,0,.3,0,.5,0,.2,0,.3,0,.4-.2s.2-.2.3-.3c0,0,0-.3,0-.4h0Z"/>
    </g>
    <path class="st2" d="M1748.5,320.9s5.2-8.1,5.7-8.8,1.1-1.7,3.5-1.7v-.6s-2.1-.1-3.3,1.3c-1.2,1.4-6.5,9.8-6.5,9.8h.8,0Z"/>
  </g>
  <g>
    <path class="st2" d="M1784.3,326.5h-58.8c-6.1,0-11.1-5-11.1-11.1s5-11.1,11.1-11.1h58.8c6.1,0,11.1,5,11.1,11.1s-5,11.1-11.1,11.1ZM1725.5,304.8c-5.9,0-10.6,4.8-10.6,10.6s4.8,10.6,10.6,10.6h58.8c5.9,0,10.6-4.8,10.6-10.6s-4.8-10.6-10.6-10.6h-58.8Z"/>
    <g class="st5">
      <g>
        <path class="st2" d="M1725.5,304.5h0c-6.1,0-11,4.8-11,10.9h.2c0-5.9,4.8-10.8,10.8-10.8h0c0,0,0,0,0,0ZM1784.3,304.5h0c5.9,0,10.8,4.9,10.8,10.9h.2c0-6.1-4.9-11-11-11h0c0,0,0,0,0,0ZM1795.1,315.4h0c0,5.9-4.8,10.8-10.8,10.8v.2c6.1,0,11-4.9,11-11h0,0ZM1725.5,326.3h0c-5.9,0-10.8-4.9-10.8-10.9h-.2c0,6.1,4.9,11,11,11h0c0,0,0,0,0,0ZM1784.3,326.3h0c0,0-58.8,0-58.8,0v.2h58.8ZM1725.5,304.5h0c0,0,58.8,0,58.8,0v-.2h-58.8Z"/>
        <path class="st2" d="M1784.5,326.6h-59.3c-6.1-.2-11-5.1-11-11.2v-.2h0c.1-6,5-10.8,10.9-10.9h0s59.3,0,59.3,0h0c6.1.2,11,5.1,11,11.2v.2h0c-.1,6-5,10.9-10.9,11h0ZM1725.5,325.9h58.8c5.8,0,10.5-4.7,10.5-10.5s-4.7-10.5-10.5-10.5h-58.7c-5.8,0-10.5,4.7-10.5,10.5v.2h0c.1,5.7,4.8,10.3,10.5,10.3Z"/>
      </g>
    </g>
  </g>
  <path class="st2" d="M1728.5,311.2h11.8s0,0,0,0,0,0,0,0h-11.8c-.6,0-1.1.5-1.1,1.1v.6s0,0,0,0,0,0,0,0v-.6c0-.6-.5-1.1-1.1-1.1h-1s0,0,0,0,0,0,0,0h1c.6,0,1.1-.5,1.1-1.1v-.6s0,0,0,0,0,0,0,0v.6c0,.6.5,1.1,1.1,1.1Z"/>
  <path class="st2" d="M1728.5,318.9h11.8s0,0,0,0,0,0,0,0h-11.8c-.6,0-1.1.5-1.1,1.1v.6s0,0,0,0,0,0,0,0v-.6c0-.6-.5-1.1-1.1-1.1h-1s0,0,0,0,0,0,0,0h1c.6,0,1.1-.5,1.1-1.1v-.6s0,0,0,0,0,0,0,0v.6c0,.6.5,1.1,1.1,1.1Z"/>
  <path class="st2" d="M1724,314.9h11.8s0,0,0,0,0,0,0,0h-11.8c-.6,0-1.1.5-1.1,1.1v.6s0,0,0,0,0,0,0,0v-.6c0-.6-.5-1.1-1.1-1.1h-1s0,0,0,0,0,0,0,0h1c.6,0,1.1-.5,1.1-1.1v-.6s0,0,0,0,0,0,0,0v.6c0,.6.5,1.1,1.1,1.1Z"/>
</svg>